<?xml version="1.0" standalone="no"?>
<!DOCTYPE svg PUBLIC "-//W3C//DTD SVG 20010904//EN"
 "http://www.w3.org/TR/2001/REC-SVG-20010904/DTD/svg10.dtd">
<svg version="1.0" xmlns="http://www.w3.org/2000/svg"
 width="500.000000pt" height="500.000000pt" viewBox="0 0 500.000000 500.000000"
 preserveAspectRatio="xMidYMid meet">
<metadata>
Created by potrace 1.11, written by Peter Selinger 2001-2013
</metadata>
<g transform="translate(0.000000,500.000000) scale(0.100000,-0.100000)"
fill="#000000" stroke="none">
<path d="M627 3792 c-50 -17 -82 -47 -100 -92 -15 -37 -17 -106 -4 -127 5 -7
6 -13 3 -13 -3 0 2 -24 11 -52 8 -29 16 -57 18 -63 1 -5 7 -23 13 -38 7 -16
12 -34 12 -41 0 -7 3 -15 6 -19 6 -5 151 -433 159 -467 2 -8 4 -16 5 -17 2 -2
3 -7 4 -12 0 -5 4 -13 9 -17 4 -4 7 -17 7 -29 0 -11 4 -25 8 -30 5 -6 19 -44
31 -85 30 -95 41 -130 51 -155 5 -11 18 -51 31 -90 25 -79 57 -173 66 -195 3
-8 7 -21 9 -29 2 -11 54 -172 72 -221 3 -8 6 -19 8 -25 2 -5 19 -57 39 -115
20 -58 38 -112 40 -120 9 -30 67 -206 74 -225 5 -11 14 -33 21 -50 6 -16 12
-32 12 -35 1 -13 65 -98 95 -126 51 -47 124 -83 184 -90 30 -4 57 -12 61 -18
6 -8 8 -8 8 0 0 13 58 13 78 1 6 -5 12 -4 12 0 0 11 211 10 228 0 6 -5 12 -4
12 0 0 11 211 10 228 0 6 -5 12 -4 12 0 0 11 211 10 228 0 6 -5 12 -4 12 0 0
11 371 10 388 0 6 -5 12 -4 12 0 0 11 211 10 228 0 6 -5 12 -4 12 0 0 11 211
10 228 0 6 -5 12 -5 12 0 0 4 64 9 143 10 78 1 169 5 202 8 33 4 66 7 73 8 6
0 12 4 12 9 0 5 4 7 8 4 10 -6 78 19 128 46 61 33 164 173 178 241 2 7 6 19 9
27 7 17 191 564 244 723 20 59 34 110 31 112 -6 7 -1197 7 -1208 0 -9 -6 -44
-100 -46 -125 -1 -12 13 -15 60 -17 189 -7 263 -22 268 -56 6 -48 4 -76 -8
-104 -7 -18 -10 -33 -7 -33 3 0 1 -6 -4 -12 -5 -7 -25 -55 -43 -106 -22 -63
-37 -91 -46 -88 -7 3 -15 0 -18 -7 -3 -8 -5 -8 -5 2 -1 11 -4 11 -16 1 -12
-10 -15 -10 -15 1 0 11 -2 11 -10 -1 -9 -13 -10 -13 -10 0 0 13 -1 13 -10 0
-6 -9 -10 -10 -10 -3 0 13 -38 12 -59 -2 -10 -6 -12 -4 -6 4 6 10 3 11 -14 2
-14 -8 -21 -8 -21 -1 0 12 -22 9 -32 -5 -5 -6 -8 -4 -8 5 0 13 -1 13 -10 0 -6
-9 -10 -10 -10 -3 0 13 -38 12 -59 -2 -10 -6 -12 -4 -6 4 6 10 3 11 -14 2 -12
-7 -21 -8 -21 -2 0 11 -19 9 -39 -3 -11 -7 -12 -6 -6 5 7 11 6 12 -7 2 -8 -7
-18 -10 -22 -6 -4 4 -35 7 -70 8 -58 0 -63 -1 -61 -20 1 -11 4 -21 5 -22 1 -2
3 -6 5 -10 1 -5 4 -15 7 -23 3 -8 16 -51 29 -95 12 -44 28 -86 33 -94 7 -9 7
-12 1 -9 -6 4 -10 -13 -11 -43 -1 -40 -6 -55 -30 -80 -16 -17 -45 -37 -64 -45
-37 -16 -226 -28 -234 -16 -6 10 55 186 66 190 4 2 6 7 3 11 -2 4 9 46 26 92
28 79 89 254 131 379 10 30 21 62 25 70 3 8 7 17 8 20 0 3 18 57 40 120 22 63
40 117 40 120 4 14 17 48 28 70 11 22 20 25 72 27 33 1 70 2 82 2 l22 1 -28
83 c-22 65 -32 82 -47 82 -32 -1 -32 14 -4 91 16 41 26 74 23 74 -3 0 -1 6 4
13 6 6 14 26 18 42 10 36 10 36 18 55 19 43 35 100 29 100 -4 0 -2 4 3 8 9 6
18 29 40 102 5 17 18 48 26 62 13 26 22 85 22 145 0 89 -48 140 -157 167 -15
4 -26 10 -23 13 7 7 -28 79 -43 88 -6 4 -8 10 -6 14 5 8 690 7 721 -2 132 -34
161 -118 104 -292 -18 -55 -33 -102 -34 -105 -1 -3 -5 -13 -9 -22 -4 -9 -5
-21 -3 -26 6 -9 892 -11 901 -1 3 3 8 16 10 30 2 13 5 25 7 27 1 1 2 5 4 10 1
4 5 14 8 22 8 17 67 198 73 220 21 87 25 111 21 146 -8 86 -77 149 -177 160
-65 7 -1855 10 -1882 3 -16 -4 -28 -5 -28 -1 0 4 -431 7 -957 7 -773 0 -964
-2 -996 -13z m123 -28 c0 -8 5 -14 10 -14 6 0 9 6 8 12 -2 9 14 13 57 12 33 0
63 4 68 10 4 7 9 2 13 -11 7 -24 26 -33 22 -11 -2 9 14 13 57 12 33 0 63 4 68
10 4 7 9 2 13 -11 7 -24 26 -33 21 -11 -1 9 15 13 58 12 33 0 63 4 68 10 4 7
9 2 13 -11 7 -24 26 -33 22 -10 -2 8 13 12 52 12 30 0 62 5 70 9 9 6 8 1 -4
-12 -11 -12 -17 -22 -13 -22 3 0 12 -3 20 -6 10 -3 15 0 14 12 -2 13 6 18 29
20 l30 1 0 -59 c0 -40 -3 -57 -11 -54 -7 2 -18 0 -26 -4 -8 -6 -16 -4 -21 3
-11 18 -10 27 5 27 8 0 14 12 14 30 0 24 -3 28 -14 18 -8 -6 -12 -17 -9 -24 3
-7 -4 -16 -15 -19 -20 -7 -20 -7 -2 -28 16 -19 16 -20 1 -8 -10 7 -18 10 -18
7 0 -4 -9 -2 -19 4 -14 7 -22 7 -26 0 -4 -6 -11 -8 -16 -5 -5 4 -9 0 -9 -7 0
-7 -9 2 -20 20 -11 17 -22 32 -25 32 -11 0 0 -35 15 -48 13 -11 12 -12 -5 -3
-13 6 -20 20 -20 38 -1 23 -5 28 -25 28 -20 0 -24 -5 -25 -32 -2 -35 -11 -51
-22 -39 -4 4 -3 10 2 14 6 4 11 16 13 27 2 15 -4 12 -26 -14 -28 -33 -30 -33
-36 -14 -4 12 -14 27 -22 34 -13 11 -15 10 -12 -7 1 -10 10 -25 18 -32 13 -11
12 -12 -5 -3 -13 6 -20 20 -20 38 -1 23 -5 28 -25 28 -20 0 -24 -5 -25 -32 -2
-35 -11 -51 -22 -39 -4 4 -3 10 2 14 6 4 12 16 13 26 3 15 -6 10 -36 -20 -22
-21 -36 -41 -31 -42 6 -3 6 -9 -1 -17 -11 -14 -3 -48 10 -40 5 3 12 0 16 -6 4
-8 3 -9 -4 -5 -7 4 -12 2 -12 -3 0 -6 5 -11 11 -11 6 0 1 -8 -11 -18 -28 -23
-32 -67 -9 -95 l19 -22 20 24 c11 12 17 27 14 32 -9 15 -22 10 -20 -8 0 -10
-6 -18 -14 -18 -19 0 -22 61 -3 76 11 9 17 9 26 0 9 -10 8 -12 -7 -9 -10 1
-21 -2 -23 -9 -3 -8 7 -10 32 -7 25 3 37 0 41 -11 4 -8 11 -15 16 -15 6 0 8 6
5 13 -3 9 12 12 62 11 36 -1 71 -2 76 -4 6 -1 13 -2 17 -1 8 1 4 -86 -5 -96
-4 -3 -6 9 -4 28 4 37 -7 69 -24 69 -6 0 -7 -5 -2 -12 11 -18 11 -88 1 -88 -5
0 -6 10 -2 22 6 20 5 21 -9 9 -9 -7 -14 -17 -11 -22 3 -5 0 -9 -5 -9 -6 0 -11
7 -11 16 0 8 -5 12 -10 9 -6 -4 -8 -11 -5 -16 4 -5 1 -9 -4 -9 -6 0 -10 10 -8
21 1 12 -3 24 -9 26 -7 2 -10 -6 -9 -22 2 -14 -1 -25 -6 -25 -6 0 -8 14 -5 31
3 20 1 29 -7 26 -7 -2 -11 -16 -11 -30 1 -15 -3 -27 -8 -27 -5 0 -6 9 -3 20 4
13 2 20 -7 21 -7 0 -21 2 -31 4 -11 2 -16 -1 -14 -8 2 -7 13 -11 23 -10 11 2
14 0 5 -4 -11 -4 -11 -7 0 -14 9 -6 3 -8 -18 -5 -33 3 -64 -17 -48 -32 4 -4
10 -1 12 6 3 6 9 12 15 12 7 0 6 -5 -2 -14 -9 -12 -8 -15 9 -13 12 1 20 6 17
12 -2 7 30 10 96 10 113 0 127 9 123 78 -2 31 0 36 11 26 7 -6 18 -8 23 -4 7
3 8 0 5 -10 -5 -12 -10 -13 -20 -4 -10 8 -13 6 -11 -10 1 -12 6 -20 12 -17 7
2 10 -11 9 -38 -1 -41 20 -81 37 -70 13 8 11 24 -3 22 -16 -4 -20 110 -4 119
6 3 8 3 4 -2 -4 -4 -3 -17 3 -27 8 -14 8 -23 0 -31 -6 -6 -11 -16 -11 -22 1
-5 9 1 20 13 15 18 17 29 10 42 -8 15 -6 17 9 13 11 -3 29 -14 40 -24 16 -15
19 -24 11 -38 -9 -18 -5 -31 11 -31 5 0 6 6 3 14 -3 8 0 17 7 22 8 4 10 3 5
-5 -8 -13 10 -41 26 -41 6 0 5 7 -2 15 -23 28 -5 23 21 -6 17 -18 23 -33 18
-41 -14 -21 -11 -27 22 -43 17 -9 28 -19 26 -22 -3 -3 -16 2 -28 11 -24 17
-49 7 -49 -20 0 -8 -5 -14 -11 -14 -5 0 -8 4 -5 9 3 5 -2 15 -11 22 -14 12
-15 11 -9 -9 4 -12 3 -22 -2 -22 -5 0 -8 20 -7 45 1 25 -2 45 -7 45 -9 0 -11
-11 -10 -53 0 -15 -4 -25 -9 -21 -5 3 -7 15 -3 27 6 21 5 21 -11 5 -16 -15
-16 -18 -1 -40 9 -12 19 -22 21 -20 17 8 26 1 15 -12 -9 -12 -8 -15 9 -13 13
1 19 6 17 14 -3 7 1 10 9 6 10 -3 18 5 25 22 12 32 36 28 32 -5 -2 -22 -2 -23
17 -6 16 15 19 15 24 2 4 -9 1 -13 -6 -10 -8 3 -13 -4 -13 -16 0 -23 7 -25 25
-7 8 6 6 0 -3 -15 -16 -25 -16 -27 5 -42 12 -8 27 -12 33 -9 6 3 6 0 -1 -7
-10 -11 -15 -11 -28 0 -8 7 -15 8 -15 2 0 -17 27 -33 46 -26 14 4 16 3 5 -4
-11 -8 -10 -11 5 -20 9 -5 19 -17 20 -26 1 -9 -2 -14 -7 -10 -5 3 -7 10 -4 15
4 5 1 9 -4 9 -6 0 -11 -2 -11 -4 0 -2 -3 -12 -6 -21 -4 -9 -3 -15 2 -14 26 5
36 -1 25 -15 -17 -20 -23 -58 -8 -53 7 2 11 11 9 20 -1 8 2 18 8 22 6 4 7 -1
3 -11 -5 -13 -3 -15 8 -9 8 5 7 1 -3 -12 -20 -22 -25 -44 -6 -25 7 7 17 12 23
12 5 0 2 -5 -7 -11 -10 -5 -18 -15 -18 -21 0 -7 6 -6 15 2 9 7 18 10 22 6 3
-3 0 -6 -8 -6 -10 -1 -10 -3 3 -10 11 -7 15 -19 12 -36 -3 -16 -1 -23 6 -19 6
4 7 -1 3 -11 -5 -13 -3 -15 7 -9 9 5 7 0 -3 -16 -19 -27 -21 -39 -7 -39 6 0
10 6 10 14 0 8 4 17 9 20 12 8 8 -27 -4 -36 -5 -4 -19 -5 -30 -2 l-20 5 20
-17 c14 -12 15 -15 4 -11 -9 3 -22 0 -28 -6 -16 -16 -14 -32 2 -18 8 6 24 8
37 6 13 -2 29 0 37 6 9 8 13 8 13 1 0 -6 -6 -13 -12 -16 -9 -3 -6 -11 9 -24
16 -14 19 -21 10 -25 -9 -3 -12 -28 -11 -80 0 -57 -3 -78 -14 -82 -20 -8 -32
3 -25 23 5 12 -1 10 -21 -8 -15 -14 -25 -18 -21 -9 4 10 -1 15 -15 16 -17 2
-19 -1 -9 -20 9 -20 9 -20 -4 -5 -16 21 -32 24 -21 6 4 -7 -1 -5 -12 4 -14 12
-24 14 -36 7 -13 -7 -16 -6 -13 3 4 9 -2 14 -15 14 -13 0 -19 -5 -15 -14 3 -7
0 -10 -6 -7 -5 4 -16 1 -24 -5 -11 -9 -18 -9 -32 0 -16 10 -16 11 -1 6 11 -3
29 5 45 19 16 13 23 25 17 25 -6 0 -17 -6 -23 -14 -7 -9 -26 -13 -47 -12 -18
2 -34 -1 -34 -5 0 -5 5 -9 11 -9 5 0 7 -5 4 -11 -13 -20 -20 3 -21 77 -1 65 1
76 18 85 11 6 17 13 14 16 -3 3 -16 -1 -29 -10 -21 -13 -23 -22 -22 -83 0 -38
4 -75 9 -83 6 -8 1 -20 -13 -34 -12 -12 -21 -16 -21 -9 0 6 4 12 10 12 5 0 0
11 -11 24 -12 14 -27 22 -33 20 -17 -7 -17 -41 0 -41 9 0 13 6 9 16 -3 8 -2
12 2 7 4 -4 8 -31 8 -59 0 -28 5 -52 11 -54 7 -2 10 7 8 27 -2 16 0 30 4 31 4
0 14 2 23 4 12 2 15 -4 13 -23 -1 -15 2 -32 7 -38 11 -13 -8 -54 -24 -54 -4 0
-6 4 -2 9 9 16 -36 41 -55 31 -10 -5 -29 -7 -43 -5 -19 4 -30 -1 -41 -17 -20
-29 -20 -50 0 -23 8 12 28 21 47 22 18 1 41 3 51 5 10 2 21 -3 23 -9 3 -7 0
-13 -7 -13 -6 0 -8 5 -5 10 3 6 1 10 -4 10 -6 0 -11 -5 -11 -11 0 -5 -5 -7
-11 -3 -7 4 -10 1 -7 -6 2 -7 21 -14 41 -15 28 -2 41 2 53 19 11 14 18 17 21
8 3 -6 8 -10 12 -8 4 3 8 0 9 -7 1 -7 3 -22 4 -35 2 -12 10 -27 18 -32 12 -7
11 -9 -5 -9 -11 0 -29 -1 -40 -3 -13 -2 -20 3 -20 12 0 8 8 14 18 14 18 -2 23
11 8 20 -5 3 -20 -3 -32 -14 l-24 -20 23 -20 c18 -14 29 -17 42 -10 9 5 27 8
38 5 15 -3 20 1 19 16 -1 10 -7 19 -14 19 -7 0 -13 5 -13 11 0 5 4 8 9 5 5 -3
15 2 22 11 12 14 11 15 -9 9 -13 -5 -22 -3 -22 3 0 6 -1 14 -2 18 -2 3 5 7 15
9 9 1 15 -2 12 -6 -6 -9 33 -25 51 -22 6 1 17 -5 24 -13 10 -12 10 -18 0 -30
-7 -8 -8 -15 -2 -15 22 0 32 26 17 46 -18 24 -18 31 -1 31 8 0 12 -6 9 -13 -6
-16 48 -8 59 9 4 6 9 1 13 -14 4 -15 14 -25 25 -26 13 -1 17 3 13 13 -3 7 -10
11 -16 7 -6 -4 -7 -1 -2 7 6 10 10 10 19 -2 6 -8 19 -14 29 -12 9 1 15 -2 12
-6 -3 -5 -1 -11 5 -15 13 -8 13 -25 -1 -25 -5 0 -7 5 -4 10 9 15 -5 12 -22 -5
-18 -18 -39 -14 -36 6 2 9 -6 15 -17 16 -17 2 -18 -1 -10 -17 15 -28 41 -40
62 -29 10 6 22 8 27 5 12 -8 34 21 26 34 -3 5 -1 10 4 10 6 0 11 -7 11 -16 0
-8 5 -12 10 -9 6 3 10 1 10 -5 0 -7 -6 -10 -14 -7 -10 4 -14 0 -13 -14 1 -11
9 -19 20 -19 10 0 16 4 12 9 -10 17 12 21 26 5 10 -12 10 -15 -1 -12 -7 2 -15
-3 -18 -11 -2 -8 0 -11 5 -8 5 3 10 0 10 -8 0 -12 -4 -12 -19 2 -17 16 -20 16
-36 -2 -16 -17 -16 -17 2 -11 22 7 47 -10 40 -28 -3 -7 -18 -12 -35 -11 -18 1
-28 -3 -26 -9 2 -6 17 -10 33 -9 29 3 29 2 4 -8 -14 -6 -20 -13 -14 -17 9 -6
10 -14 5 -39 0 -4 -6 -2 -13 5 -20 20 -32 13 -14 -7 14 -15 15 -24 7 -39 -6
-11 -7 -23 -3 -27 4 -5 1 -4 -7 0 -11 6 -13 4 -8 -8 3 -9 2 -19 -3 -22 -5 -3
-7 -15 -5 -26 4 -17 2 -19 -11 -9 -12 11 -14 9 -12 -11 2 -16 -2 -23 -10 -21
-8 1 -12 -3 -9 -10 2 -7 10 -12 17 -10 11 2 10 -1 0 -15 -8 -10 -16 -20 -18
-23 -2 -3 -2 4 0 14 1 10 -2 21 -9 23 -16 6 -6 -49 10 -59 17 -11 -1 -10 -22
2 -20 10 -66 -14 -56 -31 4 -5 1 -9 -4 -9 -6 0 -11 5 -11 10 0 6 -5 10 -11 10
-5 0 -7 -4 -4 -10 3 -5 1 -10 -5 -10 -7 0 -10 7 -6 15 6 17 -2 19 -24 5 -13
-9 -13 -10 0 -10 12 -1 11 -3 -3 -11 -21 -12 -45 3 -46 29 -1 9 -2 46 -4 80
-3 70 -23 97 -48 65 -12 -14 -11 -15 11 -10 14 4 19 4 13 1 -7 -3 -13 -10 -13
-15 0 -6 5 -7 10 -4 6 3 10 1 10 -4 0 -15 -8 -14 -34 7 -19 14 -42 17 -137 16
-63 -1 -121 -5 -130 -8 -10 -4 -23 0 -33 10 -18 17 -16 41 3 36 13 -3 15 14 2
23 -17 10 -41 -36 -31 -56 6 -10 10 -21 10 -26 -1 -4 -7 3 -14 17 -10 16 -11
30 -5 42 14 26 10 35 -6 14 -16 -21 -21 -11 -7 12 5 8 16 10 28 5 18 -7 18 -6
1 20 -10 15 -13 27 -7 27 6 0 8 5 5 10 -8 13 -18 12 196 14 126 1 185 -2 182
-9 -2 -6 6 -11 18 -12 17 -2 18 1 9 13 -12 14 -3 20 24 15 5 -1 6 5 3 12 -4
12 4 14 40 12 34 -2 50 2 64 16 24 24 24 34 -2 36 -17 2 -18 -1 -9 -13 14 -16
13 -16 -53 -18 -30 -1 -51 -7 -57 -16 -8 -12 -43 -15 -202 -16 -189 0 -244 -6
-233 -25 3 -5 -1 -6 -9 -3 -9 3 -16 1 -16 -5 0 -6 4 -11 9 -11 5 0 12 -7 15
-16 5 -13 4 -14 -7 -6 -8 7 -16 10 -19 7 -2 -3 -4 8 -4 24 0 21 4 27 14 23 11
-4 11 0 -3 21 -10 17 -22 24 -33 20 -15 -4 -15 -3 -2 6 13 10 13 12 0 22 -13
9 -12 10 2 5 30 -9 44 30 48 128 1 28 -10 33 -25 12 -13 -16 -14 -15 -12 15 1
18 -3 34 -9 36 -7 2 -10 -13 -9 -44 1 -29 6 -48 15 -51 7 -3 10 -1 7 4 -2 5 2
16 11 24 14 13 15 12 8 -5 -5 -11 -9 -36 -11 -55 -3 -47 -2 -46 -24 -47 -11
-1 -22 6 -26 15 -5 13 -3 14 6 5 12 -12 39 -7 39 9 0 5 -4 6 -10 3 -14 -8 -52
14 -44 26 3 6 12 8 20 5 17 -7 18 6 2 22 -14 14 -32 16 -23 3 3 -5 1 -12 -4
-15 -5 -4 -8 2 -6 11 1 10 -3 25 -9 33 -8 11 -4 10 16 -2 26 -17 27 -17 25 2
-1 11 -6 19 -12 16 -6 -2 -11 4 -11 14 0 11 6 16 14 13 7 -3 12 0 10 8 -2 8 5
14 16 14 11 0 21 5 23 12 5 15 -48 7 -60 -10 -5 -7 -6 -4 -2 8 4 11 7 30 7 42
-1 11 6 24 14 27 20 8 45 -11 38 -28 -3 -9 10 -12 48 -11 29 1 61 -2 71 -7 29
-15 66 30 63 77 -3 44 -27 63 -47 38 -12 -14 -11 -15 11 -10 14 4 19 4 13 1
-7 -3 -13 -10 -13 -15 0 -6 4 -7 10 -4 13 8 6 -53 -8 -67 -7 -7 -16 -7 -27 0
-12 6 -14 11 -6 16 6 4 11 13 11 19 -1 7 -9 2 -19 -10 -21 -25 -33 -30 -25
-10 3 8 -4 13 -17 14 -17 2 -18 -1 -9 -13 9 -10 9 -14 1 -14 -6 0 -11 5 -11
10 0 6 -5 10 -11 10 -5 0 -7 -4 -4 -10 11 -18 -4 -10 -30 16 -14 14 -30 22
-37 18 -7 -4 -32 -8 -57 -9 -26 -1 -40 0 -33 2 6 3 12 9 12 14 0 6 -4 8 -9 4
-5 -3 -12 -1 -16 4 -3 6 4 8 16 6 12 -2 31 2 43 10 18 13 21 26 22 108 1 94
-6 117 -35 117 -14 -1 -14 -2 2 -14 9 -7 17 -17 17 -21 0 -4 -6 -3 -13 4 -8 6
-24 9 -37 6 -12 -2 -30 0 -39 4 -9 6 -24 5 -36 -1 -14 -7 -13 -4 5 11 24 19
24 21 8 37 -10 10 -21 14 -25 10 -5 -5 -2 -11 5 -13 6 -3 12 -9 12 -14 0 -6
-4 -8 -9 -5 -5 4 -11 3 -14 -1 -2 -5 -3 -3 -1 3 1 7 -4 21 -12 33 -10 13 -11
21 -4 21 6 0 8 5 5 10 -4 6 -10 8 -14 6 -4 -3 -8 1 -8 9 0 9 4 11 11 6 18 -14
77 -6 87 12 13 22 -27 50 -52 37 -21 -12 -39 -13 -22 -2 21 13 23 70 4 94 -15
18 -71 35 -71 21 0 -13 22 -43 32 -43 7 0 6 5 -2 15 -9 10 -9 15 -1 15 6 0 11
-4 11 -10 0 -5 5 -9 12 -7 14 2 20 -61 6 -69 -5 -3 -15 -1 -22 5 -7 6 -17 7
-21 3 -5 -4 -5 -1 -1 6 4 7 2 19 -4 27 -7 8 -9 15 -6 15 4 0 2 10 -5 21 -9 17
-7 26 8 48 34 46 35 50 13 48 -11 -1 -18 -7 -16 -13 3 -7 -3 -19 -13 -28 -15
-14 -17 -14 -17 3 0 13 5 17 16 13 13 -5 13 -3 1 11 -7 9 -18 14 -25 10 -6 -3
-6 0 2 8 19 20 15 38 -9 34 -16 -3 -19 0 -15 12 4 8 1 22 -5 29 -6 8 -8 14 -4
14 4 0 2 7 -5 15 -10 12 -10 18 1 32 12 15 12 16 -4 10 -11 -4 -16 -3 -12 4 4
6 13 8 21 5 17 -7 18 6 2 22 -14 14 -32 16 -23 3 3 -5 1 -12 -4 -15 -5 -4 -8
2 -6 11 2 10 4 22 4 27 1 5 7 3 15 -4 12 -9 15 -8 13 9 -1 12 -6 20 -12 17
-14 -5 -13 132 0 142 6 4 12 16 13 26 3 17 1 18 -12 7 -8 -7 -18 -21 -21 -32
-4 -11 -10 -17 -15 -14 -5 3 -15 -4 -23 -15 -13 -18 -15 -19 -21 -5 -3 9 -2
13 4 10 6 -3 10 -2 10 2 0 5 -9 14 -21 21 -20 13 -20 14 -4 39 15 23 15 25 2
20 -11 -4 -14 -2 -10 9 4 11 9 12 19 3 10 -8 13 -6 11 10 -1 14 -6 20 -15 16
-7 -2 -10 0 -7 5 7 12 -16 48 -30 46 -5 0 -10 16 -11 37 -1 20 4 37 9 37 7 0
7 4 -1 12 -7 7 -12 16 -12 21 0 5 7 1 16 -8 12 -12 13 -19 5 -29 -7 -9 -8 -17
-3 -20 6 -3 13 2 18 12 11 25 11 83 -1 79 -5 -2 -9 -13 -7 -23 2 -15 1 -16 -7
-4 -12 17 1 36 30 45 11 4 16 11 13 17 -4 7 -2 8 4 4 7 -4 12 -1 12 6 0 8 5 6
11 -5 6 -9 15 -15 21 -11 6 4 5 9 -3 15 -14 8 -11 9 54 10 15 1 27 5 27 11 0
5 5 6 10 3 6 -3 10 -13 10 -21z m855 6 c-10 -11 -16 -20 -12 -20 3 0 12 -3 20
-6 10 -3 15 0 14 12 -2 13 6 18 30 20 29 1 32 -1 29 -25 -2 -14 -7 -34 -11
-43 -5 -13 -2 -18 9 -18 9 0 16 -6 16 -12 0 -9 4 -8 10 2 14 22 12 30 -7 24
-11 -4 -14 -3 -7 3 6 4 10 21 10 37 -1 17 5 31 13 34 10 3 12 -2 7 -21 -5 -20
-3 -25 7 -21 15 5 44 -23 34 -33 -4 -3 -2 -14 3 -23 7 -12 6 -21 -4 -29 -10
-9 -13 -3 -12 31 0 23 -4 43 -11 45 -7 3 -10 -6 -9 -21 2 -14 -1 -23 -5 -20
-8 5 -13 -10 -10 -29 1 -5 -4 -5 -11 -1 -19 12 -38 14 -38 3 0 -5 -5 -9 -10
-9 -5 0 -9 4 -7 9 1 5 -1 9 -5 10 -23 3 -28 0 -22 -11 5 -9 2 -9 -9 1 -9 7
-17 10 -17 7 0 -4 -10 0 -22 8 -26 18 -38 20 -38 6 0 -5 8 -10 18 -10 14 0 15
-2 2 -10 -8 -5 -17 -5 -20 -1 -6 8 -52 7 -66 -2 -6 -3 -10 18 -9 55 0 43 4 63
14 66 10 3 12 -2 8 -21 -6 -20 -3 -24 11 -23 9 0 16 -5 15 -11 -3 -15 13 -17
22 -4 3 5 -4 16 -16 25 -31 21 -15 36 37 32 24 -2 47 1 50 6 3 4 8 8 11 8 3 0
-2 -9 -12 -20z m240 0 c-10 -11 -16 -20 -12 -20 3 0 12 -3 20 -6 10 -3 15 0
14 12 -2 13 6 18 29 20 l30 1 0 -58 c0 -32 -3 -56 -8 -53 -14 9 -9 -7 7 -23
20 -19 14 -37 -11 -40 -16 -2 -16 -1 -1 3 21 7 22 18 2 34 -9 8 -13 20 -9 29
10 26 9 84 -2 88 -6 2 -10 -10 -9 -29 2 -18 -1 -40 -6 -49 -5 -10 -3 -24 6
-36 13 -18 13 -22 0 -26 -10 -4 -12 -1 -8 11 5 14 3 15 -8 5 -7 -7 -18 -13
-23 -13 -6 0 -3 5 7 11 9 5 17 15 17 21 0 7 -5 6 -15 -2 -10 -9 -15 -9 -15 -1
0 6 -5 11 -11 11 -6 0 -9 -6 -6 -13 3 -8 -1 -14 -8 -14 -8 0 -14 3 -13 6 2 19
-4 24 -12 11 -7 -12 -9 -11 -9 5 -1 46 -9 69 -30 86 -31 26 -18 39 35 35 24
-2 47 1 50 6 3 4 8 8 11 8 3 0 -2 -9 -12 -20z m240 0 c-10 -11 -16 -20 -12
-20 3 0 12 -3 20 -6 10 -3 15 0 14 12 -2 13 6 18 30 20 29 1 31 -1 30 -29 -1
-17 3 -32 9 -34 7 -2 11 9 10 28 -1 20 5 34 13 37 10 3 12 -2 8 -21 -5 -19 -3
-24 10 -23 8 0 18 -5 20 -11 3 -7 0 -13 -7 -13 -6 0 -8 5 -5 10 3 6 1 10 -4
10 -6 0 -11 -4 -11 -9 0 -15 -32 -22 -46 -10 -8 6 -13 18 -12 27 2 8 -2 17 -8
19 -6 2 -10 -6 -9 -18 2 -30 42 -61 63 -50 10 4 41 7 70 6 40 -1 51 2 47 13
-2 7 0 10 5 7 6 -3 10 1 10 10 0 9 -4 13 -10 10 -9 -6 -14 8 -11 28 2 11 -32
4 -41 -8 -4 -5 -5 -18 -2 -27 3 -10 0 -18 -6 -18 -6 0 -9 4 -5 9 3 5 -4 16
-16 25 -30 21 -16 35 34 32 23 -1 49 2 57 8 8 6 6 1 -4 -12 -11 -12 -17 -22
-13 -22 3 0 12 -3 20 -6 10 -3 15 0 14 12 -2 13 6 18 30 20 30 2 32 0 29 -28
-2 -16 -7 -32 -11 -36 -4 -4 -5 4 -3 17 1 13 -1 26 -7 28 -5 1 -11 -7 -12 -20
-4 -44 -11 -62 -22 -59 -6 1 -14 -5 -17 -13 -4 -9 -13 -13 -24 -10 -11 3 -17
0 -17 -10 0 -9 6 -14 14 -11 8 3 12 2 8 -3 -6 -11 -72 -7 -83 4 -4 4 4 4 18 0
22 -7 23 -6 11 8 -9 12 -18 14 -29 8 -21 -12 -25 -136 -5 -153 7 -6 17 -7 21
-3 4 4 1 10 -5 12 -7 3 -13 10 -13 16 0 6 7 4 16 -5 21 -21 9 -41 -19 -32 -19
6 -20 5 -8 -9 7 -9 18 -14 25 -10 6 4 5 -1 -2 -10 -8 -9 -10 -22 -6 -28 4 -8
3 -9 -4 -5 -7 4 -13 2 -13 -3 -1 -6 -2 -17 -3 -23 -1 -7 -10 -13 -21 -13 -24
0 -45 -12 -45 -27 0 -7 4 -7 13 -1 15 12 48 13 41 1 -3 -5 -9 -6 -14 -3 -4 3
-18 -3 -30 -13 -21 -17 -21 -19 -4 -32 16 -13 17 -13 11 2 -8 22 11 34 26 19
9 -9 8 -11 -4 -6 -12 5 -15 -1 -14 -29 1 -20 -2 -33 -6 -30 -4 2 -12 -4 -18
-13 -6 -10 -11 -14 -11 -9 0 5 7 18 17 28 9 10 11 18 5 18 -6 0 -18 -10 -26
-22 -9 -12 -16 -18 -16 -14 0 5 7 17 16 27 15 17 14 20 -7 51 -13 18 -27 34
-31 36 -4 2 -1 14 7 26 13 19 13 25 1 42 -8 10 -19 20 -25 20 -6 1 -14 2 -19
3 -4 0 -13 10 -20 22 -8 12 -9 18 -4 15 14 -8 33 19 26 37 -3 8 -1 18 5 22 7
4 8 -1 4 -12 -6 -16 -5 -16 10 -5 19 16 13 37 -12 39 -17 1 -21 -7 -22 -49 0
-12 -8 -17 -24 -16 -13 1 -21 6 -19 10 3 4 0 8 -5 8 -6 0 -10 3 -10 8 3 18 -2
32 -12 32 -5 0 -7 -4 -4 -10 4 -6 -1 -7 -11 -3 -15 5 -15 7 2 16 13 7 20 6 30
-7 7 -10 15 -13 18 -7 10 16 -34 41 -55 31 -22 -12 -39 -13 -21 -1 7 4 13 16
12 27 0 10 -1 50 -3 88 -1 52 1 70 12 74 10 3 12 -2 7 -21 -5 -20 -3 -25 7
-21 21 8 50 -31 39 -53 -10 -20 -6 -43 9 -43 6 0 7 4 4 10 -3 5 -1 19 5 30 9
17 6 25 -20 51 -16 17 -28 35 -25 39 3 5 26 8 51 6 24 -2 47 1 50 6 3 4 8 8
11 8 3 0 -2 -9 -12 -20z m399 12 c3 -5 -1 -9 -9 -9 -8 0 -12 4 -9 9 3 4 7 8 9
8 2 0 6 -4 9 -8z m-34 -13 c0 -5 -5 -7 -12 -3 -8 5 -9 1 -4 -12 5 -14 4 -16
-5 -7 -6 6 -8 16 -5 22 9 14 26 14 26 0z m-150 -51 c0 -5 -5 -8 -11 -8 -5 0
-7 5 -4 10 3 6 1 10 -5 10 -6 0 -8 5 -4 11 6 11 23 -6 24 -23z m-1250 -28 c0
-5 -4 -10 -10 -10 -5 0 -10 5 -10 10 0 6 5 10 10 10 6 0 10 -4 10 -10z m160 0
c0 -5 -4 -10 -10 -10 -5 0 -10 5 -10 10 0 6 5 10 10 10 6 0 10 -4 10 -10z
m-160 -24 c0 -3 -4 -8 -10 -11 -5 -3 -10 -1 -10 4 0 6 5 11 10 11 6 0 10 -2
10 -4z m160 0 c0 -3 -4 -8 -10 -11 -5 -3 -10 -1 -10 4 0 6 5 11 10 11 6 0 10
-2 10 -4z m-62 -34 c48 0 72 4 72 11 0 9 2 9 8 1 10 -15 294 -15 285 0 -3 6 0
5 8 -1 7 -7 23 -13 36 -13 13 0 23 6 23 13 0 9 2 9 8 0 4 -6 34 -12 67 -12
113 -2 135 -4 135 -13 0 -4 9 -8 20 -8 30 0 110 -43 151 -81 63 -59 87 -106
143 -274 2 -5 4 -13 5 -18 0 -4 8 -21 16 -37 17 -33 15 -56 -8 -113 -9 -20
-13 -37 -10 -37 3 0 1 -6 -4 -12 -5 -7 -20 -46 -33 -85 -14 -40 -28 -73 -33
-73 -4 0 -6 -4 -3 -9 3 -4 -5 -36 -19 -70 -13 -34 -25 -65 -26 -69 -1 -4 -5
-17 -10 -30 -5 -13 -9 -27 -9 -32 0 -13 -23 -18 -42 -8 -11 5 -18 5 -18 0 0
-11 -51 -9 -68 2 -7 4 -12 3 -12 -1 0 -5 -20 -9 -45 -8 -25 0 -45 3 -45 7 0 4
-5 19 -12 35 -14 35 -12 29 -28 86 -7 26 -16 50 -21 53 -5 3 -9 16 -9 29 0 13
-4 27 -10 30 -5 3 -10 15 -10 26 0 10 -4 27 -10 37 -11 20 -80 218 -87 250 -3
12 -8 22 -12 22 -4 0 -7 8 -8 18 -2 30 -52 109 -97 154 -45 46 -116 88 -147
88 -10 0 -19 4 -19 9 0 6 -8 10 -17 10 -10 0 -44 4 -75 9 -31 4 -81 7 -111 5
-58 -3 -56 -5 -86 70 -16 41 -15 43 34 40 30 -2 45 1 45 10 0 9 2 9 8 1 4 -7
37 -12 80 -12z m1653 -22 c6 0 8 4 5 8 -4 7 19 8 43 3 2 -1 -2 -8 -10 -17 -11
-14 -10 -15 7 -12 14 2 19 -2 17 -16 -1 -11 6 -26 15 -33 14 -11 14 -13 2 -11
-20 4 -31 20 -25 38 3 11 -2 16 -15 16 -24 0 -25 -6 -5 -32 8 -10 14 -23 14
-29 0 -5 -4 -2 -10 8 -5 9 -15 17 -21 17 -6 0 -5 -7 3 -17 13 -16 12 -17 -3
-4 -13 10 -22 10 -31 3 -9 -8 -17 -8 -27 0 -12 8 -12 9 3 4 20 -6 21 -2 6 26
-8 15 -8 19 0 14 6 -4 11 -3 11 3 0 6 6 8 13 5 8 -3 20 2 27 11 11 13 9 15
-10 13 -13 -2 -24 3 -26 10 -1 7 0 8 3 2 2 -5 9 -10 14 -10z m-523 -3 c15 6
16 -23 1 -32 -6 -4 -8 -14 -5 -22 3 -8 1 -11 -4 -8 -6 3 -10 2 -10 -4 0 -6 -7
-8 -15 -5 -21 8 -19 25 3 18 16 -5 16 -5 0 9 -10 8 -18 18 -18 22 0 4 7 2 15
-5 15 -12 35 -6 35 11 0 6 -4 8 -9 5 -12 -8 -41 3 -41 15 0 6 7 6 18 1 9 -5
23 -7 30 -5z m-1708 -68 c0 -6 -4 -7 -10 -4 -5 3 -10 11 -10 16 0 6 5 7 10 4
6 -3 10 -11 10 -16z m1525 -109 c3 -5 1 -18 -5 -27 -9 -15 -10 -14 -4 6 4 16
3 21 -5 17 -6 -4 -11 -2 -11 3 0 14 17 14 25 1z m-1445 -41 c0 -5 -4 -7 -10
-4 -5 3 -10 1 -10 -4 0 -6 5 -11 10 -11 6 0 10 -4 10 -8 0 -11 -39 -13 -45 -1
-4 5 2 6 11 2 12 -4 15 -3 10 5 -8 14 0 32 15 32 5 0 9 -5 9 -11z m0 -60 c0
-5 -4 -7 -10 -4 -5 3 -10 1 -10 -4 0 -6 4 -11 9 -11 5 0 9 -11 9 -25 0 -26 -8
-28 -12 -3 -1 7 -5 19 -9 26 -9 13 -1 32 14 32 5 0 9 -5 9 -11z m1480 -31 c0
-4 -5 -8 -12 -8 -6 0 -8 3 -5 6 3 4 2 16 -4 28 -10 20 -10 20 5 2 9 -11 16
-23 16 -28z m-645 2 c3 -5 1 -10 -4 -10 -6 0 -11 5 -11 10 0 6 2 10 4 10 3 0
8 -4 11 -10z m670 -80 c3 -5 1 -10 -4 -10 -6 0 -11 5 -11 10 0 6 2 10 4 10 3
0 8 -4 11 -10z m-621 -51 c-3 -6 0 -15 7 -20 9 -6 10 -9 2 -9 -15 0 -26 17
-18 30 3 6 8 10 11 10 3 0 2 -5 -2 -11z m-730 -314 c14 -10 24 -11 38 -4 20
11 38 4 37 -14 0 -9 -2 -9 -6 1 -2 6 -9 12 -14 12 -6 0 -8 -4 -5 -9 3 -5 -6
-8 -19 -8 -14 0 -28 4 -31 8 -3 5 -10 6 -16 3 -6 -4 -8 -2 -4 4 3 5 0 13 -6
15 -7 3 -8 6 -3 6 6 0 18 -6 29 -14z m871 -95 c-3 -5 -11 -10 -16 -10 -6 0 -7
5 -4 10 3 6 11 10 16 10 6 0 7 -4 4 -10z m-791 -75 c16 -17 30 -20 21 -6 -5 8
13 9 58 2 4 0 7 -6 7 -11 0 -7 -6 -7 -18 -1 -11 6 -24 6 -35 -1 -14 -7 -23 -6
-36 6 -22 20 -38 21 -22 2 9 -10 8 -15 -2 -19 -11 -4 -15 18 -8 41 3 7 21 0
35 -13z m831 -24 c-3 -5 -1 -12 4 -16 6 -3 7 -13 4 -23 -6 -15 -5 -15 10 -3
13 10 17 11 17 1 0 -9 7 -7 22 6 19 15 20 16 9 2 -14 -19 -5 -23 18 -9 10 6
20 3 32 -12 10 -12 18 -17 19 -10 0 6 -4 15 -10 18 -5 3 -10 12 -9 18 0 8 2 8
6 -1 4 -10 8 -10 21 0 15 12 16 11 3 -4 -15 -21 -9 -23 21 -7 15 8 19 8 14 0
-10 -16 6 -13 33 6 18 12 22 13 15 2 -4 -8 -9 -21 -9 -29 0 -8 -6 -14 -12 -12
-7 1 -13 -2 -13 -6 0 -4 6 -14 13 -22 10 -12 9 -12 -6 0 -10 7 -16 19 -13 27
3 7 1 13 -4 13 -19 0 -19 -19 0 -43 19 -23 19 -26 2 -38 -15 -13 -16 -12 -3 4
8 10 9 17 3 17 -6 0 -16 -8 -21 -17 -6 -10 -11 -12 -11 -5 0 6 -5 12 -11 12
-5 0 -7 -5 -3 -12 4 -7 3 -8 -5 -4 -15 10 -4 27 16 24 9 -2 18 2 20 9 3 8 -3
11 -17 8 -30 -6 -52 -26 -46 -41 3 -8 0 -11 -9 -7 -8 3 -12 10 -8 16 4 6 0 8
-8 5 -12 -5 -15 3 -14 33 1 28 -3 38 -12 35 -7 -3 -15 -1 -18 4 -4 6 -12 10
-18 10 -7 -1 -2 -9 11 -19 22 -19 31 -38 12 -26 -5 3 -10 1 -10 -4 0 -6 5 -11
10 -11 6 0 10 -5 10 -11 0 -8 -5 -8 -15 1 -10 8 -15 9 -15 2 0 -6 8 -16 18
-21 9 -6 12 -11 5 -11 -6 0 -15 5 -18 10 -4 6 -14 9 -23 8 -14 -3 -16 8 -17
70 -1 39 3 72 8 72 4 0 6 -4 2 -9z m-761 -7 c9 -3 16 -11 16 -16 0 -6 -7 -5
-15 2 -9 7 -18 10 -21 7 -3 -3 3 -12 15 -19 24 -15 28 -30 6 -22 -8 4 -15 1
-15 -5 0 -6 7 -11 15 -11 8 0 15 -5 15 -11 0 -5 -4 -8 -9 -5 -5 3 -15 -2 -22
-11 -12 -14 -11 -15 9 -9 12 4 22 3 22 -2 0 -15 -48 -7 -68 10 -9 9 -24 18
-32 21 -10 4 -7 6 8 6 12 1 22 6 22 12 0 6 -9 9 -20 6 -11 -3 -22 -2 -25 2 -2
5 8 8 23 7 21 -1 27 -6 25 -21 -1 -14 4 -21 16 -21 25 0 25 51 -1 54 -10 1
-27 3 -38 4 -11 1 -20 6 -20 11 0 5 11 7 24 5 14 -3 31 -1 38 3 16 10 13 10
32 3z m1960 -30 c-7 -3 -10 -14 -7 -24 3 -11 9 -17 14 -14 5 3 9 0 9 -5 0 -23
1 -27 17 -51 15 -23 15 -24 0 -11 -9 7 -26 11 -36 8 -13 -3 -18 -1 -14 8 2 8
-2 13 -11 11 -20 -3 -33 -16 -16 -16 10 0 11 -3 3 -11 -16 -16 -37 -1 -24 15
6 7 8 16 5 19 -4 4 3 4 15 2 15 -3 21 0 18 8 -3 7 -10 11 -16 10 -6 -2 -11 2
-11 7 0 6 7 10 16 8 10 -2 19 3 22 11 3 8 0 11 -6 7 -6 -3 -14 -1 -18 5 -4 7
-3 9 4 5 6 -3 13 -2 17 4 3 5 12 10 18 9 9 0 9 -2 1 -5z m-2008 -83 c15 -12
33 -17 47 -14 12 3 18 2 14 -3 -4 -4 -26 -9 -47 -10 -32 -1 -38 1 -30 11 8 10
6 16 -7 24 -10 6 -14 11 -10 11 5 0 20 -9 33 -19z m994 -60 c0 -9 -71 -205
-76 -211 -3 -2 -8 0 -12 6 -20 30 -147 85 -207 90 -16 1 -32 3 -35 5 -9 4 -35
6 -102 8 l-66 1 -16 47 c-9 26 -16 50 -16 53 0 4 119 7 265 7 146 0 265 -3
265 -6z m-951 -38 c-3 -19 2 -33 12 -33 6 0 8 9 4 20 -3 11 -2 20 3 20 8 0 9
-14 3 -54 0 -5 -9 -2 -19 7 -10 10 -21 14 -25 11 -3 -3 -3 3 0 15 5 19 25 31
22 14z m6 -61 c15 -10 17 -52 3 -52 -6 0 -8 3 -5 7 4 3 2 12 -4 20 -6 7 -8 13
-3 13 5 0 2 5 -6 10 -8 5 -10 10 -5 10 6 0 15 -4 20 -8z m554 -32 c-6 -5 -18
-6 -26 -3 -19 8 -16 11 13 11 17 0 22 -3 13 -8z m-476 -235 c-3 -9 -8 -14 -10
-11 -3 3 -2 9 2 15 9 16 15 13 8 -4z m125 -186 c6 4 63 7 126 6 94 0 118 -4
134 -18 10 -9 22 -14 25 -10 4 3 7 1 7 -5 0 -7 -6 -12 -13 -12 -7 0 -13 -10
-14 -22 -2 -22 -1 -22 12 -4 14 18 14 18 14 0 1 -45 9 -68 30 -85 17 -14 28
-16 41 -9 9 5 28 7 40 5 25 -5 53 12 45 25 -9 15 14 22 32 10 16 -10 16 -10
-3 -5 -14 4 -21 1 -21 -10 0 -10 7 -14 21 -10 12 3 15 2 8 -1 -6 -3 -10 -9 -7
-13 2 -5 -7 -7 -20 -5 -14 1 -27 -2 -31 -7 -5 -9 9 -13 33 -10 6 1 14 -3 17
-8 3 -5 -5 -8 -19 -7 -14 2 -31 -4 -37 -12 -11 -13 -10 -15 3 -10 9 3 22 2 30
-2 9 -6 2 -8 -20 -7 -19 1 -36 -3 -38 -9 -2 -7 10 -10 32 -9 19 2 33 -1 30 -5
-3 -5 -16 -7 -30 -5 -16 1 -24 -2 -22 -9 2 -6 11 -11 18 -10 8 1 15 -7 15 -16
0 -10 -6 -16 -12 -13 -7 2 -17 -5 -23 -16 -14 -25 -14 -34 -1 -26 6 3 10 1 10
-4 0 -13 -3 -13 -24 -5 -13 5 -14 10 -5 20 18 22 17 64 -2 87 l-19 22 -20 -23
c-14 -18 -17 -29 -10 -42 5 -9 7 -28 5 -40 -5 -25 10 -50 28 -50 7 0 7 4 -1
12 -7 7 -12 16 -12 21 0 5 7 1 16 -7 8 -9 12 -21 8 -27 -4 -7 1 -18 11 -26 11
-7 14 -13 8 -13 -7 0 -15 5 -18 10 -3 6 -11 10 -17 10 -6 0 -4 -8 5 -18 21
-23 21 -36 1 -56 -8 -9 -11 -16 -5 -16 6 0 11 -5 11 -11 0 -8 -4 -8 -15 1 -11
9 -19 7 -41 -15 -14 -14 -23 -29 -19 -33 3 -4 15 4 25 18 14 19 22 22 31 13
14 -14 3 -34 -18 -31 -9 2 -18 -2 -20 -9 -3 -8 4 -10 22 -7 18 3 24 1 20 -6
-4 -6 -13 -9 -21 -6 -8 3 -14 1 -14 -4 0 -15 20 -22 33 -11 10 7 13 5 14 -10
1 -10 -2 -19 -8 -19 -5 0 -9 -5 -9 -11 0 -6 7 -8 18 -4 13 5 14 3 5 -6 -14
-14 -36 -2 -29 17 6 16 -10 19 -19 4 -4 -6 8 -24 25 -41 23 -24 34 -28 44 -20
10 8 16 7 26 -4 9 -10 9 -15 1 -15 -6 0 -11 6 -11 13 0 9 -3 8 -9 -2 -6 -10
-13 -10 -29 -2 -11 6 -22 8 -25 3 -2 -4 -2 -1 -1 6 4 15 -8 16 -23 1 -8 -8
-13 -8 -18 0 -3 6 -1 10 6 9 6 -2 13 2 16 9 4 12 -39 9 -59 -4 -5 -3 -12 4
-15 15 -3 14 -11 19 -24 17 -16 -3 -19 0 -14 14 3 11 -1 24 -11 32 -15 12 -16
11 -10 -11 6 -21 5 -22 -4 -7 -12 19 -4 41 11 32 5 -4 9 -1 9 4 0 14 -23 14
-37 0 -13 -13 -36 -2 -27 12 8 13 -16 40 -28 33 -6 -4 -5 3 1 15 11 19 -1 32
-12 14 -2 -5 -2 -2 -1 5 2 6 -2 12 -8 12 -6 0 -9 3 -6 6 4 3 15 1 26 -5 16 -8
25 -6 44 9 25 19 31 61 10 68 -7 2 -9 -6 -6 -21 5 -31 -18 -52 -43 -39 -10 5
-25 7 -33 5 -9 -3 -7 1 5 11 20 16 20 16 1 31 -10 8 -23 16 -28 17 -5 2 -10
10 -11 18 -2 8 -6 21 -10 28 -5 7 -3 12 5 12 9 1 7 5 -4 14 -15 11 -13 13 20
12 20 -1 43 -5 50 -9 16 -11 15 3 -2 26 -14 18 -32 24 -21 7 3 -5 1 -10 -5
-10 -7 0 -10 6 -7 13 2 6 12 11 21 11 17 -2 22 11 8 20 -12 7 -53 -24 -47 -35
4 -5 1 -9 -4 -9 -6 0 -10 10 -8 21 1 12 -5 24 -13 27 -13 5 -13 3 -1 -11 7
-10 9 -17 3 -17 -6 0 -12 6 -15 13 -6 17 3 38 14 31 5 -3 9 0 9 5 0 6 -4 11
-9 11 -22 0 -21 35 1 51 12 10 20 21 16 24 -4 4 -18 -5 -33 -19 -21 -21 -24
-30 -15 -45 5 -11 10 -23 10 -28 -1 -4 -7 3 -14 17 -10 16 -11 30 -5 42 14 27
10 35 -8 13 -14 -17 -15 -18 -9 -2 3 10 1 27 -4 38 -7 13 -7 19 0 19 5 0 10
-7 10 -15 0 -8 2 -15 4 -15 2 0 12 -3 22 -7 16 -6 15 -3 -4 21 -17 22 -20 32
-11 43 7 7 9 16 6 19 -3 3 -12 -3 -19 -15 -7 -12 -20 -21 -28 -21 -12 0 -12 2
-1 9 9 6 10 11 2 15 -6 4 -11 12 -11 19 0 6 6 2 14 -9 14 -18 15 -18 13 4 -1
12 -7 22 -14 22 -7 0 -13 5 -13 10 0 7 7 7 20 0 11 -6 18 -15 15 -21 -9 -13 9
-11 23 3 14 14 16 32 3 23 -12 -7 -61 15 -61 27 0 5 8 4 18 -1 10 -5 23 -6 30
-2z m1587 -99 c-7 -12 23 -65 32 -57 2 3 -1 16 -8 29 -6 12 -8 20 -4 16 4 -4
15 -3 25 2 27 14 22 -83 -5 -105 l-20 -16 20 3 c29 4 42 28 40 74 -1 36 1 41
19 40 16 -1 20 -7 19 -24 -3 -22 -2 -22 22 -6 21 14 23 19 13 32 -11 13 -11
14 2 7 15 -10 20 -11 41 -14 5 0 7 -6 3 -12 -4 -7 -1 -10 7 -7 8 3 13 10 12
15 -1 5 10 9 25 9 22 0 27 -4 28 -25 1 -14 -1 -20 -3 -13 -7 19 -22 14 -20 -8
1 -11 6 -19 12 -17 6 3 10 -20 11 -59 0 -35 -4 -64 -9 -64 -4 0 -5 10 -1 22 6
20 5 21 -9 9 -9 -7 -14 -17 -11 -22 3 -5 0 -9 -5 -9 -6 0 -11 7 -11 15 0 8 -3
14 -7 14 -27 -4 -35 1 -23 15 9 12 8 15 -9 13 -12 -1 -19 -7 -17 -13 2 -6 -3
-11 -11 -10 -9 0 -18 -4 -20 -10 -2 -7 7 -10 24 -8 15 1 34 -1 43 -6 11 -6 7
-9 -15 -8 -44 1 -55 -1 -55 -10 0 -4 35 -7 78 -7 l77 0 -1 97 c-1 55 3 98 8
98 5 0 6 -4 3 -10 -3 -5 -2 -10 3 -10 17 0 22 13 9 28 -10 13 -9 14 3 7 15
-10 20 -11 41 -14 5 0 7 -6 3 -12 -4 -7 -1 -10 7 -7 8 3 13 10 12 15 -1 5 11
9 27 9 23 0 27 -2 18 -13 -14 -18 -3 -16 27 3 18 12 28 13 44 4 12 -6 21 -16
20 -23 0 -9 -2 -9 -6 1 -2 6 -9 12 -15 12 -6 0 -8 -7 -5 -14 4 -11 1 -13 -11
-9 -15 6 -15 5 1 -14 17 -19 17 -21 0 -34 -16 -13 -17 -12 -4 4 16 21 3 22
-25 3 -21 -15 -27 -77 -10 -105 7 -10 6 -12 -4 -6 -10 6 -12 4 -7 -9 4 -10 -1
-24 -13 -36 -11 -11 -17 -20 -14 -20 4 0 -6 -10 -20 -21 -21 -17 -25 -24 -14
-30 10 -7 10 -9 0 -9 -7 0 -15 6 -18 13 -2 7 -15 13 -27 14 l-22 2 23 -19 c12
-10 22 -24 21 -32 0 -10 -2 -10 -6 0 -2 6 -10 9 -15 6 -7 -5 -8 -2 -4 5 6 8 2
11 -10 9 -29 -5 -35 -21 -16 -43 9 -11 13 -17 8 -13 -5 4 -16 2 -25 -5 -14
-10 -14 -10 -3 5 12 15 11 17 -8 15 -15 -1 -20 -7 -17 -18 4 -13 0 -16 -16
-13 -12 2 -25 -2 -29 -9 -6 -8 -8 -6 -6 7 2 10 -2 21 -9 23 -8 3 -10 -6 -7
-29 4 -27 2 -30 -6 -15 -6 9 -8 22 -4 28 4 7 1 10 -7 7 -8 -3 -13 -16 -11 -29
3 -23 2 -23 -14 -4 -11 14 -14 15 -11 4 6 -18 -21 -22 -40 -6 -18 14 -16 21
13 56 14 17 21 31 16 31 -6 0 -21 -12 -34 -27 -22 -27 -67 -46 -53 -24 3 6 13
11 21 11 8 0 14 5 14 11 0 5 -4 8 -8 5 -4 -2 -8 4 -8 14 0 10 6 16 13 13 7 -3
10 -9 7 -14 -10 -17 7 -9 33 15 15 14 30 23 35 20 4 -3 8 -1 8 4 0 20 -14 20
-41 0 -23 -18 -32 -19 -42 -9 -10 10 -8 11 8 6 18 -6 17 -4 -4 14 -15 13 -18
21 -9 21 7 0 14 9 15 20 1 13 -2 18 -9 14 -7 -4 -8 -2 -4 4 4 6 -1 23 -10 37
-9 14 -14 28 -10 32 3 4 -1 17 -9 30 -9 13 -13 23 -9 23 4 0 0 8 -7 18 -11 14
-11 15 0 5 7 -6 20 -9 27 -6 20 7 17 21 -3 19 -10 0 -18 6 -18 14 -1 8 -7 14
-15 12 -8 -2 -12 0 -8 3 4 4 3 16 -3 27 -9 17 -5 38 7 38 3 0 2 -5 -1 -10z
m475 -131 c0 -4 -7 -6 -15 -3 -8 4 -15 10 -15 15 0 4 7 6 15 3 8 -4 15 -10 15
-15z m-15 -19 c3 -5 1 -10 -4 -10 -6 0 -11 5 -11 10 0 6 2 10 4 10 3 0 8 -4
11 -10z m-1670 -40 c0 -18 -6 -35 -12 -37 -7 -3 -13 0 -13 7 0 6 5 8 10 5 6
-3 10 -1 10 4 0 6 -4 11 -9 11 -12 0 -23 29 -15 41 12 20 29 1 29 -31z m28
-95 c-3 -9 -8 -14 -10 -11 -3 3 -2 9 2 15 9 16 15 13 8 -4z m-313 -45 c0 -5
-4 -10 -10 -10 -5 0 -10 5 -10 10 0 6 5 10 10 10 6 0 10 -4 10 -10z m1815 -38
c-3 -3 -11 0 -18 7 -9 10 -8 11 6 5 10 -3 15 -9 12 -12z m-274 -47 c8 3 20 -5
28 -17 14 -23 13 -23 -6 -5 -18 16 -21 16 -26 2 -4 -8 -12 -15 -19 -14 -10 0
-10 2 0 6 10 4 9 10 -5 26 -13 16 -14 18 -2 9 9 -7 23 -10 30 -7z m-43 -17
c-3 -7 -12 -14 -22 -14 -13 -2 -13 -1 -1 3 8 2 13 9 10 14 -4 5 -1 9 5 9 7 0
10 -6 8 -12z m-1198 -128 c0 -5 -5 -10 -11 -10 -5 0 -7 5 -4 10 3 6 8 10 11
10 2 0 4 -4 4 -10z"/>
<path d="M680 3760 c-22 -13 -22 -66 0 -66 11 0 17 9 17 27 0 20 -4 26 -16 22
-14 -4 -14 -3 -1 5 10 8 18 8 27 0 8 -6 16 -8 20 -4 3 3 12 -3 20 -14 13 -19
40 -30 29 -11 -6 9 39 34 64 35 8 1 21 -3 28 -8 7 -5 15 -6 19 -2 3 3 12 -3
20 -14 13 -19 40 -30 29 -11 -6 9 39 34 64 35 8 1 21 -3 28 -8 7 -5 15 -6 18
-3 6 6 60 -48 67 -66 6 -18 19 -1 22 28 2 16 -2 25 -11 25 -8 0 -14 -5 -14
-11 0 -5 -5 -7 -11 -3 -8 4 -1 13 17 22 34 19 54 21 72 8 7 -5 15 -6 18 -3 6
5 46 -32 64 -60 11 -17 11 -17 6 0 -4 12 -2 16 6 11 8 -5 9 -2 5 10 -4 10 -3
15 4 11 5 -4 7 -16 3 -28 -5 -18 -4 -20 6 -10 9 8 19 9 30 3 13 -7 17 -5 17 8
0 20 -15 42 -29 42 -6 0 -5 -7 2 -15 7 -9 11 -18 8 -21 -3 -2 -13 8 -23 22
-16 25 -19 26 -30 10 -7 -9 -16 -13 -19 -8 -3 5 6 15 19 22 32 17 32 28 -1 28
-15 0 -21 -4 -14 -8 8 -5 6 -9 -6 -14 -11 -4 -23 -2 -29 6 -6 8 -34 13 -73 14
-35 0 -58 -2 -52 -6 8 -5 6 -10 -6 -14 -11 -4 -23 -2 -29 6 -6 8 -34 13 -73
14 -35 0 -58 -2 -52 -6 8 -5 6 -10 -6 -14 -11 -4 -23 -2 -29 6 -6 8 -34 13
-73 14 -35 0 -58 -2 -52 -6 8 -5 6 -10 -6 -14 -11 -4 -23 -2 -29 6 -12 16 -45
20 -65 8z"/>
<path d="M1305 3752 c-8 -22 -6 -27 6 -15 8 8 18 4 35 -15 l23 -27 1 23 c0 13
-4 20 -10 17 -9 -5 -14 7 -11 27 1 13 -38 4 -44 -10z"/>
<path d="M1390 3759 c0 -5 5 -8 12 -6 19 4 18 -62 -1 -73 -13 -8 -11 -9 9 -8
23 2 25 6 25 48 0 40 -3 45 -22 46 -13 1 -23 -2 -23 -7z"/>
<path d="M624 3733 c7 -22 -8 -50 -18 -34 -4 6 -2 11 3 11 6 0 11 5 11 10 0 6
-6 10 -13 10 -8 0 -13 -12 -13 -30 0 -18 4 -29 10 -27 8 3 11 -26 11 -87 0
-71 -4 -97 -18 -116 -16 -24 -16 -26 0 -37 20 -15 24 -16 42 -4 14 9 25 61 12
61 -9 0 -31 -22 -31 -32 0 -4 8 -4 17 -1 15 6 16 5 3 -9 -13 -14 -16 -14 -26
1 -10 12 -9 18 5 27 13 10 16 30 15 119 -1 81 2 108 12 112 19 7 17 16 -7 31
-18 12 -20 11 -15 -5z"/>
<path d="M823 3720 c0 -17 6 -26 17 -26 11 0 17 9 17 26 0 17 -6 26 -17 26
-11 0 -17 -9 -17 -26z"/>
<path d="M983 3728 c1 -21 8 -23 25 -6 17 17 15 24 -7 24 -13 0 -19 -7 -18
-18z"/>
<path d="M1143 3728 c1 -21 8 -23 25 -6 17 17 15 24 -7 24 -13 0 -19 -7 -18
-18z"/>
<path d="M700 3719 c0 -6 6 -9 13 -6 10 4 13 -5 12 -31 -1 -21 -3 -40 -4 -43
0 -4 -18 -6 -39 -5 -38 2 -39 1 -39 -34 0 -35 1 -36 39 -34 21 1 38 -2 38 -7
0 -4 -12 -7 -27 -7 -47 1 -50 -1 -50 -27 0 -21 2 -23 14 -14 9 8 10 14 3 19
-6 4 22 6 63 5 l73 -1 -2 61 c-1 33 -3 63 -3 67 -1 3 -13 20 -27 37 -25 30
-64 42 -64 20z m54 -40 c-2 -4 1 -9 8 -11 14 -5 19 -118 6 -118 -5 0 -6 10 -2
22 6 20 5 21 -9 9 -9 -7 -14 -17 -11 -22 3 -5 1 -9 -5 -9 -5 0 -11 8 -13 17
-2 11 -14 18 -33 19 -17 1 -33 2 -37 3 -13 2 -9 19 6 24 9 4 13 1 10 -6 -2 -8
4 -13 17 -14 17 -2 18 1 9 13 -7 8 -8 14 -4 14 5 0 15 -9 22 -20 16 -26 28
-26 28 0 0 14 -5 19 -14 15 -12 -4 -11 -1 1 19 9 14 14 36 11 52 -3 21 -2 25
5 14 5 -8 8 -17 5 -21z"/>
<path d="M745 3641 c-3 -5 -1 -12 4 -16 6 -3 7 -13 4 -23 -3 -9 -3 -14 2 -10
11 10 15 58 5 58 -5 0 -11 -4 -15 -9z"/>
<path d="M786 3714 c-3 -8 0 -27 8 -42 7 -15 11 -34 8 -42 -4 -11 0 -11 15 3
11 10 24 17 29 16 18 -3 34 1 34 9 0 10 -41 10 -56 -1 -7 -4 -14 -1 -17 6 -3
9 5 13 31 13 22 -1 37 4 40 13 3 10 0 11 -9 5 -19 -11 -49 -13 -55 -2 -3 4
-11 6 -17 2 -7 -3 -4 1 6 9 21 17 22 27 3 27 -8 0 -17 -7 -20 -16z"/>
<path d="M860 3719 c0 -6 6 -9 13 -6 10 4 13 -5 13 -29 -1 -34 -21 -58 -39
-47 -18 11 -44 -33 -43 -73 0 -31 5 -40 18 -41 10 -1 16 2 13 7 -7 11 5 40 17
40 5 0 6 -4 3 -10 -12 -20 -14 -51 -3 -48 6 2 12 14 13 26 1 12 5 25 10 29 4
5 4 -3 0 -17 -7 -22 -6 -23 8 -11 23 19 6 49 -26 46 -30 -4 -54 9 -38 19 6 4
11 3 11 -1 0 -5 10 -9 23 -10 l22 -2 -23 19 -23 19 28 -3 c35 -4 54 21 47 60
-3 21 -2 25 5 14 5 -8 7 -18 5 -22 -3 -4 0 -8 6 -8 6 0 1 -13 -11 -30 -12 -16
-26 -27 -31 -24 -12 8 -10 -10 4 -24 14 -14 32 -16 23 -2 -3 5 -2 18 4 27 8
15 10 14 7 -7 -1 -14 -5 -30 -8 -36 -9 -13 3 -28 25 -32 17 -3 17 -1 4 25 -24
46 -12 92 27 106 15 5 16 57 0 57 -8 0 -14 -2 -14 -4 0 -2 -3 -12 -6 -20 -5
-13 -2 -15 12 -9 16 6 17 5 4 -8 -13 -14 -17 -12 -38 13 -23 28 -62 38 -62 17z
m-30 -153 c0 -3 -4 -8 -10 -11 -5 -3 -10 -1 -10 4 0 6 5 11 10 11 6 0 10 -2
10 -4z"/>
<path d="M643 3675 c0 -25 2 -27 37 -27 35 0 38 2 38 27 0 17 -4 23 -12 18
-13 -10 -37 -10 -52 0 -7 4 -11 -2 -11 -18z m55 -3 c8 -6 2 -9 -18 -9 -20 0
-26 3 -18 9 7 4 15 8 18 8 3 0 11 -4 18 -8z"/>
<path d="M585 3641 c-3 -5 -1 -12 3 -15 10 -6 9 -42 -1 -52 -7 -8 0 -24 12
-24 4 0 7 23 7 50 0 47 -8 62 -21 41z"/>
<path d="M563 3613 c-19 -7 -16 -29 5 -30 11 -1 18 5 18 18 0 20 -2 21 -23 12z"/>
<path d="M876 3521 c-9 -10 -16 -22 -16 -27 1 -5 9 1 19 13 17 20 20 21 26 6
5 -15 7 -15 15 -3 14 21 12 26 -9 27 -11 1 -26 -6 -35 -16z"/>
<path d="M679 3520 c-14 -9 -22 -50 -10 -50 9 0 31 22 31 32 0 4 -8 5 -17 2
-15 -5 -15 -4 -3 4 9 7 19 7 26 2 10 -9 24 -4 24 10 0 9 -35 9 -51 0z"/>
<path d="M754 3513 c3 -8 1 -11 -4 -8 -19 12 -54 -23 -55 -57 -3 -64 12 -73
123 -73 66 0 98 -3 96 -10 -3 -6 5 -11 17 -12 15 -1 18 1 10 10 -11 15 24 43
48 38 7 -1 10 2 6 9 -4 6 -15 8 -25 5 -26 -8 -57 26 -51 58 1 4 -5 14 -13 22
-12 13 -16 12 -26 -1 -7 -8 -10 -18 -6 -21 4 -4 11 -1 15 6 5 8 11 9 15 3 7
-11 -21 -25 -34 -17 -5 3 -8 -4 -7 -15 1 -23 8 -25 25 -8 9 9 15 9 25 -1 7 -9
7 -11 1 -8 -7 4 -23 -2 -35 -13 -13 -11 -19 -19 -12 -20 6 0 14 4 18 9 3 6 14
9 25 8 10 -1 16 -5 13 -11 -4 -6 1 -6 13 -2 10 4 15 3 10 -1 -4 -4 -32 -9 -63
-9 -33 -1 -49 2 -41 7 7 5 14 17 14 29 1 23 0 24 -27 9 -14 -7 -18 -16 -14
-30 4 -11 2 -19 -5 -19 -6 0 -9 4 -5 9 3 5 1 12 -5 16 -5 3 -10 -1 -10 -9 0
-9 -5 -16 -11 -16 -5 0 -8 4 -5 9 3 5 -2 15 -11 22 -14 12 -15 11 -9 -9 4 -12
3 -22 -2 -22 -5 0 -8 20 -7 45 1 25 -2 45 -7 45 -9 0 -11 -11 -9 -59 0 -19 -2
-31 -6 -27 -9 9 -12 86 -4 87 3 1 22 3 41 4 19 2 42 6 51 9 20 9 36 -11 21
-26 -8 -8 -16 -7 -27 2 -8 7 -15 8 -15 2 0 -5 6 -15 14 -21 10 -9 19 -7 37 8
22 18 23 21 8 36 -9 9 -25 18 -35 20 -10 2 -19 4 -19 6 0 1 -10 3 -23 4 -16 2
-22 -2 -18 -12z m36 -3 c0 -5 -5 -10 -11 -10 -5 0 -7 5 -4 10 3 6 8 10 11 10
2 0 4 -4 4 -10z m55 -90 c3 -5 1 -10 -4 -10 -6 0 -11 5 -11 10 0 6 2 10 4 10
3 0 8 -4 11 -10z"/>
<path d="M810 3480 c0 -5 5 -10 10 -10 6 0 10 5 10 10 0 6 -4 10 -10 10 -5 0
-10 -4 -10 -10z"/>
<path d="M995 3480 c4 -6 11 -8 16 -5 14 9 11 15 -7 15 -8 0 -12 -5 -9 -10z"/>
<path d="M1060 3475 c-7 -8 -21 -13 -32 -12 -12 1 -22 -3 -25 -8 -2 -6 9 -11
24 -10 14 0 28 5 30 12 3 8 17 4 45 -14 39 -26 41 -27 54 -8 18 24 18 30 -1
45 -13 10 -19 9 -35 -5 -16 -15 -23 -16 -33 -6 -9 10 -8 11 6 6 9 -4 17 -3 17
2 0 14 -38 13 -50 -2z m93 -31 c-3 -8 -7 -14 -10 -14 -3 0 -3 7 1 15 7 18 -5
20 -23 3 -11 -11 -11 -9 0 9 9 16 17 19 25 12 7 -6 10 -17 7 -25z"/>
<path d="M755 3470 c-5 -9 11 -50 20 -50 2 0 11 3 19 6 13 5 14 9 5 20 -16 20
-29 17 -23 -3 5 -15 4 -15 -4 -3 -8 10 -8 18 0 27 7 9 7 13 0 13 -6 0 -14 -4
-17 -10z"/>
<path d="M950 3460 c0 -5 5 -10 10 -10 6 0 10 5 10 10 0 6 -4 10 -10 10 -5 0
-10 -4 -10 -10z"/>
<path d="M1326 3427 c3 -8 -7 -26 -22 -40 -15 -15 -24 -30 -21 -34 4 -3 7 -1
7 6 0 7 9 3 19 -10 l20 -24 -2 23 c-1 12 -6 22 -11 22 -5 0 1 11 13 24 13 14
20 29 16 35 -9 16 -25 14 -19 -2z"/>
<path d="M674 3360 c0 -47 8 -62 21 -41 3 5 1 12 -3 15 -10 6 -9 36 1 52 6 11
0 24 -13 24 -3 0 -6 -22 -6 -50z"/>
<path d="M1225 3401 c-3 -5 -1 -12 3 -15 10 -6 9 -36 -1 -53 -4 -6 -1 -16 7
-22 10 -9 13 0 12 44 0 52 -7 67 -21 46z"/>
<path d="M1343 3398 c-4 -7 -8 -26 -8 -43 0 -20 -5 -29 -14 -27 -7 1 -19 -2
-26 -8 -9 -8 -15 -8 -20 0 -3 5 -12 10 -18 10 -7 -1 -2 -9 11 -19 22 -19 31
-38 12 -26 -5 3 -10 1 -10 -4 0 -6 5 -11 10 -11 6 0 10 -5 10 -11 0 -8 -4 -8
-14 1 -12 9 -15 8 -13 -9 1 -13 6 -20 14 -17 21 8 15 -8 -8 -22 -12 -7 -18
-16 -15 -19 3 -3 12 0 21 7 8 7 15 8 15 2 0 -15 -29 -23 -49 -12 -25 13 -65
-15 -52 -37 10 -19 69 -25 89 -10 19 15 14 -4 -5 -20 -17 -14 -17 -14 0 -9 23
7 21 -2 -5 -25 -13 -10 -18 -18 -11 -19 6 0 14 4 18 10 3 5 12 7 20 3 10 -3
14 0 12 8 -2 8 -2 11 0 7 9 -16 22 -7 20 12 -1 11 -6 19 -12 16 -7 -2 -10 30
-10 93 0 78 3 96 15 97 8 1 17 2 20 4 3 1 26 3 52 5 38 1 45 -1 41 -14 -5 -13
-3 -13 7 -4 16 15 5 44 -14 37 -8 -3 -17 -1 -20 5 -4 6 -13 8 -20 5 -7 -3 -19
2 -26 11 -10 12 -10 18 0 30 8 9 9 15 2 15 -6 0 -14 -6 -19 -12z m22 -48 c3
-5 1 -10 -4 -10 -6 0 -11 5 -11 10 0 6 2 10 4 10 3 0 8 -4 11 -10z m-126 -179
c9 -6 22 -6 33 0 12 6 18 6 18 -1 0 -5 -3 -11 -7 -11 -45 -7 -63 -6 -58 2 4 5
1 9 -4 9 -6 0 -11 -5 -11 -12 0 -6 -3 -9 -6 -5 -7 7 4 27 14 27 4 0 14 -4 21
-9z"/>
<path d="M694 3360 c0 -18 23 -24 36 -9 3 3 23 -5 45 -18 l40 -23 -35 1 c-49
2 -60 0 -60 -9 0 -5 20 -8 45 -7 25 1 45 -2 45 -7 0 -5 -10 -6 -22 -2 -20 6
-21 5 -9 -9 7 -9 17 -14 22 -11 5 3 9 1 9 -4 0 -5 -8 -12 -18 -14 -15 -4 -17
-17 -17 -86 0 -47 5 -86 12 -93 12 -12 -2 -59 -19 -59 -4 0 -8 -5 -8 -11 0 -8
4 -8 14 0 11 9 15 9 18 0 2 -6 16 -13 31 -14 21 -3 27 1 25 13 -5 26 53 24 74
-2 9 -11 20 -18 23 -14 4 4 -4 18 -17 31 -29 29 -74 29 -99 -1 -15 -20 -16
-20 -29 2 -12 19 -12 20 3 7 10 -8 17 -9 17 -3 0 6 -5 14 -10 17 -6 4 -8 11
-5 16 4 5 3 15 -2 22 -4 6 -9 29 -9 50 -2 34 0 36 12 20 12 -17 13 -16 11 5
-1 12 -7 22 -14 22 -7 0 -13 5 -13 11 0 5 4 8 9 5 5 -3 15 2 22 11 12 14 11
15 -9 9 -12 -4 -22 -4 -22 1 0 5 77 8 170 8 94 0 170 -3 170 -8 0 -5 -10 -5
-22 -1 -20 6 -21 5 -9 -9 7 -9 17 -14 22 -11 5 3 9 0 9 -5 0 -6 -6 -11 -13
-11 -7 0 -13 -10 -14 -22 -2 -22 -1 -22 12 -4 13 17 14 17 13 -5 -1 -13 -10
-34 -21 -46 -11 -13 -16 -23 -10 -23 5 0 19 10 30 23 27 30 27 150 0 155 -9 2
-17 8 -17 13 0 6 4 8 9 5 5 -3 15 2 22 11 12 14 11 15 -9 9 -12 -4 -22 -3 -22
2 0 5 20 8 45 7 25 -1 45 2 45 7 0 9 -11 11 -60 9 l-35 -1 40 23 c22 13 42 21
45 18 13 -15 36 -9 36 9 0 21 -11 27 -20 11 -3 -4 -17 -7 -31 -6 -14 2 -25 0
-25 -4 0 -4 -13 -15 -30 -24 -21 -13 -28 -14 -25 -5 4 9 -2 14 -15 14 -26 0
-26 -12 0 -28 11 -7 20 -17 20 -22 0 -4 -6 -3 -14 4 -12 9 -15 8 -13 -9 1 -13
6 -19 14 -17 7 3 10 -1 6 -9 -3 -9 3 -18 17 -23 13 -5 -48 -8 -150 -8 -102 0
-163 3 -150 8 14 5 20 14 17 23 -4 8 -1 12 6 9 7 -2 13 4 14 16 2 19 -11 28
-20 13 -2 -5 -2 -2 -1 4 2 7 -10 20 -26 28 -17 9 -30 20 -30 24 0 5 -11 8 -25
6 -14 -1 -28 2 -31 6 -9 16 -20 10 -20 -11z"/>
<path d="M784 3359 c-5 -9 22 -19 30 -11 10 9 46 10 52 0 6 -9 24 -1 24 11 0
9 -100 9 -106 0z"/>
<path d="M1030 3360 c0 -13 13 -19 24 -13 16 10 46 11 52 1 3 -4 10 -6 15 -3
21 13 6 21 -41 21 -27 0 -50 -3 -50 -6z"/>
<path d="M823 3336 c2 -6 11 -10 19 -10 19 2 18 -64 -2 -76 -8 -5 -4 -7 12 -7
21 0 24 4 22 38 -1 21 4 40 10 42 10 3 141 2 157 -2 4 0 6 -18 5 -40 -2 -34 1
-38 20 -38 19 0 21 2 9 13 -7 8 -12 25 -10 39 1 18 -4 29 -19 38 -26 14 -146
17 -164 3 -8 -6 -16 -6 -20 0 -10 13 -44 14 -39 0z"/>
<path d="M703 3321 c-17 -27 -9 -80 15 -96 19 -14 21 -14 19 5 -1 11 -6 19
-12 16 -17 -6 -13 63 4 73 8 5 21 7 30 3 9 -3 13 -2 9 3 -14 15 -55 13 -65 -4z"/>
<path d="M1160 3329 c-13 -10 -13 -10 1 -6 9 3 22 1 30 -4 17 -10 21 -79 4
-73 -6 3 -11 -5 -12 -16 -2 -19 0 -19 19 -5 14 9 22 27 23 47 3 53 -30 82 -65
57z"/>
<path d="M889 3309 c-1 -5 -1 -18 -1 -29 0 -35 2 -37 27 -37 21 0 23 2 14 14
-8 9 -14 10 -19 3 -4 -6 -7 3 -7 20 0 17 3 26 7 20 5 -7 11 -6 19 3 9 12 7 15
-14 15 -14 0 -25 -4 -26 -9z"/>
<path d="M950 3310 c0 -5 5 -10 10 -10 6 0 10 5 10 10 0 6 -4 10 -10 10 -5 0
-10 -4 -10 -10z"/>
<path d="M991 3303 c8 -9 14 -10 19 -3 4 6 7 -3 7 -20 0 -17 -3 -26 -7 -20 -5
7 -11 6 -19 -3 -9 -12 -7 -14 14 -14 25 0 27 2 27 37 0 35 -2 38 -27 38 -21 0
-23 -3 -14 -15z"/>
<path d="M1344 3306 c-5 -12 -10 -14 -20 -5 -10 8 -13 6 -11 -10 1 -12 4 -21
8 -21 11 0 42 40 36 46 -4 4 -9 -1 -13 -10z"/>
<path d="M1395 3310 c-7 -11 12 -50 24 -50 5 0 14 6 20 14 9 11 8 15 -5 20
-23 9 -24 8 -18 -11 5 -15 4 -15 -4 -3 -8 10 -8 18 0 27 7 9 7 13 0 13 -6 0
-14 -4 -17 -10z"/>
<path d="M924 3289 c-10 -17 6 -27 38 -25 21 1 33 7 33 16 0 16 -62 24 -71 9z"/>
<path d="M1244 3292 c-5 -4 -10 -16 -11 -27 0 -28 -14 -56 -23 -50 -5 3 -13
-1 -17 -10 -7 -12 -10 -11 -21 5 -7 11 -9 20 -4 20 4 0 8 9 9 19 1 14 -3 18
-15 14 -14 -4 -15 -3 -2 5 10 8 19 7 29 -1 11 -10 13 -9 10 2 -7 21 -22 23
-44 7 -14 -10 -16 -18 -9 -27 6 -8 9 -24 8 -36 0 -13 3 -23 9 -23 6 0 6 -4 -1
-12 -5 -7 -8 -25 -6 -41 4 -40 -53 -96 -71 -68 -3 6 4 19 17 30 12 12 18 24
15 28 -4 3 -7 1 -7 -6 0 -7 -9 -3 -19 10 l-20 24 2 -22 c1 -13 5 -23 11 -23 5
0 1 -9 -8 -19 -16 -18 -16 -20 5 -35 14 -9 28 -12 38 -7 15 7 54 7 158 -2 33
-2 41 0 40 13 -1 17 -23 20 -44 7 -7 -5 -21 -4 -30 1 -10 5 -25 7 -33 5 -9 -3
-6 1 5 10 20 16 20 16 -2 14 -13 -1 -23 -7 -23 -14 0 -7 -4 -13 -10 -13 -5 0
-9 3 -9 8 1 4 0 9 -1 12 -6 16 -6 52 1 56 5 2 6 10 3 17 -5 14 38 42 65 42 10
0 16 9 17 23 1 12 -3 22 -8 22 -4 0 -1 11 8 25 16 24 10 33 -12 17z m-84 -212
c0 -5 -5 -10 -11 -10 -5 0 -7 5 -4 10 3 6 8 10 11 10 2 0 4 -4 4 -10z"/>
<path d="M727 3283 c-13 -12 -7 -26 6 -15 9 8 17 8 27 0 13 -8 12 -9 -2 -5
-12 4 -16 0 -15 -14 1 -10 5 -19 9 -19 5 0 1 -11 -8 -25 -9 -14 -12 -25 -8
-25 17 0 30 15 29 35 0 11 4 26 9 34 15 19 -30 52 -47 34z"/>
<path d="M950 3250 c0 -5 5 -10 10 -10 6 0 10 5 10 10 0 6 -4 10 -10 10 -5 0
-10 -4 -10 -10z"/>
<path d="M1314 3200 c0 -47 8 -62 21 -41 3 5 1 12 -3 15 -10 6 -9 36 1 52 6
11 0 24 -13 24 -3 0 -6 -22 -6 -50z"/>
<path d="M1450 3238 c-1 -27 -30 -51 -66 -53 -26 -2 -33 0 -25 8 16 16 14 23
-8 24 -19 2 -24 -26 -7 -38 5 -4 5 -13 0 -20 -5 -8 -10 -27 -11 -44 -5 -81 -5
-80 -48 -78 -22 1 -52 4 -67 6 -30 6 -47 -7 -23 -17 8 -3 17 -1 21 5 4 7 12 5
22 -4 20 -17 84 -16 90 2 3 9 7 9 18 0 10 -8 18 -9 27 0 17 13 15 53 -3 59 -7
3 -10 0 -6 -7 4 -6 2 -11 -3 -11 -6 0 -11 -5 -11 -11 0 -5 5 -7 10 -4 6 3 10
1 10 -5 0 -7 -6 -10 -12 -7 -7 2 -12 13 -10 23 2 10 4 35 6 54 2 19 4 38 5 41
0 4 19 6 41 5 27 -1 39 2 36 9 -2 7 -1 17 4 24 4 7 7 -15 6 -50 0 -34 4 -64 9
-66 6 -2 10 30 10 82 1 47 -3 85 -7 85 -4 0 -8 -6 -8 -12z"/>
<path d="M695 3200 c-14 -15 -15 -23 -6 -33 6 -8 8 -17 5 -20 -4 -3 3 -5 15
-4 22 1 36 23 21 32 -5 3 -7 12 -4 19 9 23 -12 27 -31 6z m21 -19 c0 -11 -5
-17 -13 -14 -10 4 -11 9 -2 19 15 18 15 18 15 -5z"/>
<path d="M839 3200 c-14 -9 -22 -50 -10 -50 9 0 31 22 31 32 0 4 -8 5 -17 2
-15 -5 -15 -4 -3 4 9 7 19 7 26 2 10 -9 24 -4 24 10 0 9 -35 9 -51 0z"/>
<path d="M910 3199 c0 -14 18 -20 26 -8 4 8 9 7 15 -2 6 -10 11 -11 17 -3 5 7
19 3 42 -10 29 -17 36 -27 35 -51 0 -16 -4 -36 -8 -42 -5 -8 -3 -13 4 -13 6 0
1 -8 -11 -18 -38 -31 -32 -90 12 -113 18 -10 20 -9 15 4 -4 10 -1 14 7 11 9
-3 11 8 10 41 -1 25 2 43 6 40 5 -3 7 -21 6 -40 -2 -23 1 -34 8 -32 6 2 11 12
12 23 2 39 4 45 14 39 6 -3 10 -1 10 5 0 6 10 4 25 -6 24 -16 32 -10 17 12 -6
10 -29 11 -57 4 -31 -8 -72 24 -57 44 18 22 7 76 -19 93 -13 9 -26 19 -29 23
-7 8 -100 8 -100 -1z m147 -168 c1 -11 -5 -25 -13 -32 -8 -6 -14 -16 -14 -21
0 -6 7 -5 15 2 10 9 15 9 15 1 0 -10 -11 -14 -27 -8 -15 4 -11 57 6 67 9 5 16
10 16 10 1 0 1 -9 2 -19z"/>
<path d="M1030 3020 c0 -5 5 -10 10 -10 6 0 10 5 10 10 0 6 -4 10 -10 10 -5 0
-10 -4 -10 -10z"/>
<path d="M1030 3201 c0 -15 13 -21 24 -11 7 5 17 5 26 -2 12 -8 12 -9 -2 -4
-10 3 -18 2 -18 -2 0 -9 21 -32 30 -32 11 0 9 40 -2 46 -16 10 -58 13 -58 5z"/>
<path d="M1478 3198 c-4 -37 -3 -44 5 -55 6 -8 6 -13 0 -13 -5 0 -9 -13 -9
-29 0 -17 4 -27 9 -24 6 3 7 1 4 -4 -4 -6 2 -22 13 -34 l20 -24 21 24 20 25
-31 24 c-18 14 -29 30 -26 38 3 8 1 14 -5 14 -6 0 -9 7 -6 15 4 8 2 17 -3 20
-5 3 -7 12 -3 20 3 8 2 15 -1 15 -3 0 -7 -6 -8 -12z m55 -149 c-15 -15 -36 -1
-29 17 3 8 -1 17 -9 20 -8 4 -13 10 -10 14 3 5 17 -2 32 -16 19 -18 23 -28 16
-35z"/>
<path d="M1510 3060 c0 -5 5 -10 10 -10 6 0 10 5 10 10 0 6 -4 10 -10 10 -5 0
-10 -4 -10 -10z"/>
<path d="M851 3152 c-22 -21 -42 -34 -45 -28 -2 6 -2 -2 -1 -19 2 -16 5 -32 6
-35 1 -3 3 -12 3 -20 1 -9 9 -14 21 -12 21 3 61 3 94 0 10 -1 17 -7 15 -13 -5
-14 13 -41 23 -32 4 5 1 12 -7 17 -8 6 -10 10 -5 10 6 0 17 -5 25 -11 13 -9
13 -11 1 -16 -8 -3 -25 -17 -38 -29 -18 -18 -21 -29 -15 -41 11 -21 9 -113 -2
-131 -5 -8 6 -25 30 -47 44 -41 49 -42 51 -14 1 15 -1 19 -8 12 -15 -15 -61
30 -53 51 5 13 9 14 20 5 8 -6 13 -18 12 -27 -2 -8 2 -17 9 -19 19 -7 6 40
-17 59 -20 17 -28 34 -10 23 6 -3 10 -1 10 4 0 6 -4 11 -10 11 -5 0 -10 5 -10
11 0 8 4 8 14 -1 12 -9 15 -8 13 9 -1 13 -6 20 -14 17 -20 -8 -15 4 10 25 12
10 17 18 10 19 -6 0 -15 -5 -19 -11 -4 -8 -9 -7 -15 2 -13 21 -11 27 12 40 16
8 24 8 33 -1 6 -6 7 -11 1 -10 -22 5 -45 -1 -45 -10 0 -5 14 -7 31 -5 25 3 28
1 18 -11 -14 -17 2 -19 20 -1 11 10 11 8 0 -10 -9 -16 -17 -19 -26 -12 -9 8
-11 5 -10 -10 2 -27 10 -26 44 5 22 21 25 27 13 34 -8 6 -18 10 -22 10 -8 0
-22 38 -22 60 0 23 14 60 23 60 4 0 8 6 9 13 3 22 4 62 3 73 -2 16 -42 31 -79
29 -18 -1 -35 2 -38 7 -9 15 -23 9 -63 -30z m61 -7 c-3 -16 -1 -17 12 -6 9 7
13 18 10 25 -3 6 2 2 10 -8 16 -20 16 -20 32 0 8 10 13 14 10 8 -3 -7 2 -18
11 -25 15 -12 16 -12 10 4 -4 10 -3 16 2 13 7 -5 8 -60 1 -76 -1 -3 -2 -8 -2
-11 1 -3 -9 -6 -21 -5 -15 1 -21 7 -19 19 2 9 -2 17 -8 17 -5 0 -10 -5 -10
-12 0 -6 -9 -3 -20 7 -11 10 -20 13 -20 7 0 -6 4 -13 9 -17 6 -3 9 -14 8 -25
-1 -10 -5 -16 -10 -13 -4 3 -6 11 -3 19 3 7 1 16 -4 19 -4 3 -7 21 -6 40 2 19
-1 35 -5 35 -5 0 -10 -6 -10 -12 -1 -7 -2 -20 -3 -28 -1 -8 2 -22 6 -31 3 -8
3 -21 -2 -29 -7 -11 -13 -9 -31 13 -11 16 -24 26 -27 23 -2 -3 1 -13 8 -21 11
-13 11 -18 -1 -28 -7 -7 -11 -8 -7 -3 4 5 2 18 -4 29 -8 16 -7 23 4 31 8 6 15
14 16 19 0 4 3 13 6 20 3 6 3 -1 1 -17 -4 -29 9 -56 27 -56 5 0 6 6 1 13 -12
18 -11 71 2 79 16 12 30 3 27 -17z m79 -103 c2 2 1 -1 -2 -5 -7 -9 -49 13 -49
26 0 4 10 1 23 -8 13 -8 26 -14 28 -13z"/>
<path d="M924 3128 c-9 -14 4 -23 36 -24 22 -1 27 2 23 15 -4 14 -3 14 6 1 7
-11 6 -19 -6 -32 -9 -10 -11 -18 -6 -18 20 0 35 28 25 47 -11 19 -68 27 -78
11z"/>
<path d="M747 3166 c-4 -9 -3 -18 2 -20 11 -7 7 -36 -7 -63 -10 -19 -10 -22 7
-20 15 1 18 9 17 53 -1 55 -9 76 -19 50z"/>
<path d="M1372 3151 c-4 -3 -9 -16 -9 -29 -2 -20 1 -22 13 -11 10 8 11 14 4
19 -6 4 3 7 20 7 17 0 26 -3 20 -7 -7 -5 -6 -11 3 -19 12 -9 15 -7 15 14 0 14
-3 25 -7 26 -36 5 -52 5 -59 0z"/>
<path d="M710 3120 c0 -9 8 -16 18 -17 11 -1 18 5 18 17 0 12 -7 18 -18 17
-10 -1 -18 -8 -18 -17z"/>
<path d="M1174 3121 c0 -13 7 -19 18 -18 10 1 18 5 18 9 0 5 9 3 20 -4 14 -9
16 -14 7 -20 -9 -6 -9 -8 0 -8 16 0 24 15 17 33 -3 9 -15 14 -30 12 -13 -1
-27 2 -30 6 -9 15 -20 10 -20 -10z"/>
<path d="M1385 3110 c-4 -6 -3 -16 2 -23 5 -7 8 -23 7 -37 -2 -20 2 -26 18
-27 19 -2 19 -1 4 23 -9 13 -12 24 -8 24 13 0 9 43 -5 47 -6 2 -14 -1 -18 -7z"/>
<path d="M1425 3065 c1 -14 5 -29 9 -32 3 -4 -1 -14 -9 -23 -20 -22 -29 -63
-12 -57 7 3 11 10 9 17 -4 18 27 49 48 47 14 -1 16 -4 8 -14 -13 -17 4 -17 22
0 12 10 12 9 1 -5 -17 -23 2 -24 23 -2 15 14 16 13 14 -7 -2 -12 3 -24 10 -26
7 -3 10 1 6 10 -3 8 -1 18 5 22 21 12 11 23 -19 20 -30 -4 -37 1 -64 40 -12
17 -16 18 -32 5 -17 -14 -18 -13 -7 1 7 9 10 19 6 22 -13 14 -21 6 -18 -18z
m49 -23 c2 -4 -4 -9 -15 -9 -11 -1 -17 2 -14 8 7 11 22 12 29 1z"/>
<path d="M1220 3020 c0 -7 -7 -10 -15 -7 -8 4 -17 2 -20 -3 -4 -7 -13 -6 -25
0 -20 11 -50 4 -50 -11 0 -13 14 -11 30 4 12 10 12 9 1 -5 -7 -9 -10 -22 -6
-28 9 -15 25 -12 19 4 -3 8 -1 17 5 20 5 4 10 -2 11 -11 4 -95 3 -92 37 -68
17 12 21 23 18 55 -3 35 -1 39 11 29 23 -19 26 -4 4 16 -13 12 -20 14 -20 5z
m-17 -27 c-7 -2 -13 -9 -13 -14 0 -6 4 -8 9 -5 5 3 9 -6 9 -19 0 -14 -5 -28
-11 -32 -5 -3 -7 0 -5 8 3 8 1 22 -4 32 -10 20 -3 37 15 36 9 0 9 -2 0 -6z"/>
<path d="M1325 3010 c-2 -4 -14 -6 -27 -5 -13 1 -26 -3 -30 -9 -14 -21 -8 -27
15 -14 12 7 26 11 31 10 4 -2 16 3 25 10 14 12 15 11 2 -4 -17 -22 2 -24 23
-2 15 14 16 13 14 -7 -2 -12 3 -24 10 -26 7 -3 10 1 6 10 -3 8 -1 18 5 22 6 3
11 9 11 13 0 10 -79 11 -85 2z"/>
<path d="M873 2985 c16 -14 34 -22 40 -19 9 5 9 3 0 -6 -10 -11 -15 -11 -28 0
-9 8 -15 8 -15 2 0 -6 9 -17 20 -25 11 -8 17 -17 13 -20 -3 -4 -1 -7 5 -7 9 0
9 -4 1 -18 -11 -18 -13 -17 -36 6 -13 13 -22 27 -19 29 3 3 14 -5 25 -18 11
-13 20 -18 21 -11 0 7 -11 24 -24 37 -16 16 -20 27 -13 34 7 7 3 9 -12 8 -15
-1 -20 -6 -15 -17 4 -8 7 -29 7 -47 -1 -19 4 -30 11 -28 15 6 57 -31 54 -47
-4 -20 -28 -35 -52 -33 -20 2 -36 -10 -36 -28 0 -5 4 -5 10 -2 5 3 23 -4 40
-16 16 -13 33 -20 36 -16 3 3 -8 15 -26 25 -19 12 -27 23 -21 26 6 4 11 2 11
-5 0 -8 6 -6 18 4 10 10 24 17 30 17 13 0 12 27 -1 48 -5 6 -4 12 2 12 5 0 7
12 5 28 -6 33 -6 42 -2 67 2 14 -2 19 -13 17 -9 -1 -22 5 -29 13 -7 8 -18 15
-24 15 -6 0 2 -12 17 -25z"/>
<path d="M890 3000 c0 -5 5 -10 10 -10 6 0 10 5 10 10 0 6 -4 10 -10 10 -5 0
-10 -4 -10 -10z"/>
<path d="M1440 2995 c-6 -8 -9 -19 -6 -24 4 -5 2 -12 -4 -16 -16 -10 -12 -21
9 -21 13 0 19 7 18 18 -1 10 -5 18 -10 18 -4 0 -5 5 -1 11 4 8 9 7 15 -2 4 -7
5 -17 3 -21 -7 -11 7 -10 25 1 11 7 9 11 -8 20 -12 7 -19 16 -16 22 10 15 -11
10 -25 -6z"/>
<path d="M1233 2973 c1 -12 8 -25 16 -28 22 -9 23 0 2 26 l-20 24 2 -22z"/>
<path d="M1300 2981 c0 -6 -7 -11 -15 -11 -8 0 -15 -4 -15 -10 0 -14 13 -13
28 2 8 8 12 9 12 1 0 -7 13 -10 33 -8 23 3 28 2 16 -5 -9 -5 -27 -7 -40 -5
-13 3 -33 -2 -46 -10 -17 -12 -23 -12 -23 -3 0 7 -9 3 -21 -9 -12 -11 -18 -26
-15 -32 10 -16 26 -14 20 3 -3 8 0 17 6 21 7 4 9 -2 6 -20 -3 -17 -1 -25 7
-22 7 2 12 12 12 23 0 10 6 18 13 17 6 -2 12 2 12 7 0 6 5 10 11 10 8 0 8 -5
-1 -15 -9 -11 -9 -15 -1 -15 6 0 14 7 17 15 4 8 10 15 16 15 5 0 6 -4 3 -10
-9 -15 5 -12 22 5 17 17 40 14 36 -4 -3 -13 13 -15 21 -2 3 5 -10 21 -29 35
-19 15 -35 22 -35 16 0 -6 -11 -3 -25 6 -15 10 -25 12 -25 5z"/>
<path d="M1482 2943 c-33 -34 -37 -53 -12 -61 7 -3 10 0 6 6 -4 7 -2 20 3 31
14 25 78 24 73 -2 -2 -10 1 -17 5 -16 25 4 35 -2 24 -14 -6 -8 -8 -16 -5 -20
3 -3 1 -14 -5 -25 -8 -16 -7 -25 9 -44 l20 -23 20 23 c14 18 17 29 10 42 -5 9
-7 27 -5 39 3 19 -5 26 -28 22 -4 -1 -10 5 -13 13 -3 8 -20 26 -37 39 l-32 24
-33 -34z m128 -73 c0 -5 -4 -10 -10 -10 -5 0 -10 5 -10 10 0 6 5 10 10 10 6 0
10 -4 10 -10z m4 -37 c8 -21 -10 -41 -24 -27 -11 11 -3 44 10 44 4 0 11 -8 14
-17z"/>
<path d="M1590 2820 c0 -5 5 -10 10 -10 6 0 10 5 10 10 0 6 -4 10 -10 10 -5 0
-10 -4 -10 -10z"/>
<path d="M1084 2941 c-16 -16 -33 -34 -39 -40 -5 -6 -25 -24 -43 -41 -31 -27
-32 -31 -18 -46 9 -8 17 -20 17 -25 3 -19 5 -24 11 -35 4 -6 5 -21 3 -34 -5
-25 21 -70 38 -66 7 1 9 1 5 -1 -16 -9 -7 -22 12 -20 11 1 18 7 16 13 -2 6 3
11 11 10 9 0 18 4 20 10 2 6 -12 9 -36 8 -43 -2 -51 7 -47 51 2 16 -2 29 -11
32 -11 4 -9 9 7 20 11 8 20 19 20 25 0 6 -6 6 -15 -2 -13 -11 -18 -11 -28 0
-9 9 -9 11 0 6 6 -3 24 5 40 19 15 13 23 25 17 25 -6 0 -17 -6 -23 -14 -18
-21 -52 -17 -41 5 12 22 76 20 73 -2 -2 -9 5 -15 17 -16 17 -2 18 1 10 17 -13
24 -40 39 -60 33 -13 -4 -13 -3 -1 5 8 6 21 8 29 4 10 -3 13 -1 8 6 -13 21 11
46 44 48 30 2 30 1 11 -13 -12 -8 -21 -19 -21 -25 0 -6 7 -5 18 4 9 9 22 14
27 12 6 -3 11 4 12 15 1 10 -6 22 -15 25 -9 3 -22 8 -28 11 -6 3 -24 -8 -40
-24z"/>
<path d="M795 2940 c-4 -6 -13 -9 -21 -6 -11 4 -10 -1 3 -19 19 -25 33 -32 33
-15 0 6 -5 10 -11 10 -8 0 -7 5 1 15 7 9 10 18 7 21 -3 3 -8 0 -12 -6z"/>
<path d="M1089 2915 c-1 -8 -2 -21 -3 -27 -1 -7 4 -19 10 -25 7 -7 14 -18 17
-25 2 -7 8 -9 13 -5 5 4 2 13 -6 18 -12 9 -12 10 3 5 10 -3 21 -6 24 -6 3 0 0
-7 -7 -15 -9 -11 -9 -15 -1 -15 6 0 14 7 17 15 4 8 10 15 16 15 5 0 6 -4 3
-10 -9 -15 5 -12 22 5 19 20 39 14 35 -10 -3 -15 -1 -17 10 -8 11 10 13 4 13
-29 0 -23 5 -43 11 -45 7 -2 10 16 8 52 -1 31 2 53 7 49 5 -3 9 -1 9 5 0 18
-20 23 -26 6 -5 -13 -11 -12 -40 10 -19 14 -34 21 -34 15 0 -6 -10 -4 -24 6
-24 15 -25 15 -23 -5 1 -17 7 -20 37 -16 22 3 30 1 20 -4 -21 -12 -65 -7 -62
7 3 15 -10 16 -25 1 -9 -9 -11 -4 -8 20 2 17 0 31 -5 31 -6 0 -11 -7 -11 -15z"/>
<path d="M1360 2915 c-7 -8 -19 -14 -28 -13 -8 2 -17 -2 -19 -9 -5 -14 32 -9
52 7 10 8 15 7 19 -7 3 -10 15 -19 27 -20 16 -2 18 1 9 12 -9 10 -7 15 9 20
12 3 21 11 21 16 0 13 -11 11 -31 -7 -18 -16 -44 -11 -34 7 10 15 -12 10 -25
-6z"/>
<path d="M1489 2915 c-3 -28 -4 -33 -11 -41 -5 -4 -17 1 -28 11 -11 10 -20 13
-20 7 0 -7 6 -12 13 -12 8 0 7 -4 -3 -10 -8 -5 -27 -7 -42 -5 -21 4 -31 -1
-44 -20 -9 -14 -14 -28 -11 -31 3 -3 10 4 17 15 6 12 15 21 21 21 6 0 3 -7 -5
-16 -12 -12 -13 -20 -6 -35 8 -13 8 -24 0 -37 -9 -14 -10 -13 -4 8 6 22 5 23
-9 11 -12 -9 -14 -18 -8 -29 7 -12 26 -17 73 -18 52 -1 67 3 88 21 28 25 68
32 49 8 -14 -17 2 -17 21 0 12 10 12 9 1 -5 -16 -21 1 -24 18 -4 10 11 8 16
-8 21 -20 6 -38 41 -32 60 13 39 9 61 -10 62 -20 2 -20 1 -5 -23 10 -14 12
-24 6 -24 -6 0 -9 -4 -6 -9 7 -10 -22 -24 -34 -16 -5 3 -8 -4 -7 -15 1 -23 8
-25 25 -8 9 9 15 9 25 -1 8 -9 8 -12 0 -7 -6 3 -24 -4 -40 -17 -15 -13 -39
-24 -52 -25 -22 -1 -22 0 -5 13 11 8 14 15 7 15 -6 0 -18 -7 -27 -15 -19 -19
-32 -20 -16 0 12 15 6 35 -11 35 -6 0 -8 -4 -5 -9 8 -12 -3 -41 -15 -41 -6 0
-6 7 0 18 6 11 6 24 0 33 -5 7 -9 19 -9 24 0 6 4 4 8 -2 13 -21 70 -23 95 -3
18 15 19 20 9 33 -10 11 -10 16 -1 19 14 5 22 58 8 58 -5 0 -10 -7 -10 -15z
m-14 -76 c0 -18 -67 -19 -72 -1 -3 6 0 12 7 12 6 0 8 -4 5 -10 -9 -15 5 -12
22 5 18 18 38 15 38 -6z"/>
<path d="M1450 2840 c0 -5 5 -10 10 -10 6 0 10 5 10 10 0 6 -4 10 -10 10 -5 0
-10 -4 -10 -10z"/>
<path d="M1520 2915 c-7 -9 -10 -18 -7 -22 4 -3 2 -12 -3 -18 -11 -13 -4 -45
10 -45 14 0 20 31 11 48 -7 12 -5 22 6 34 9 10 11 18 6 18 -6 0 -16 -7 -23
-15z"/>
<path d="M1270 2906 c0 -5 7 -17 16 -27 11 -12 13 -23 7 -36 -5 -10 -8 -36 -8
-58 1 -29 -4 -44 -19 -57 -12 -9 -16 -17 -9 -18 6 0 15 5 19 11 5 8 10 6 16
-6 7 -11 6 -21 -1 -28 -12 -12 -90 -19 -92 -8 -7 39 -6 63 4 67 7 2 13 14 14
25 2 17 -1 18 -12 9 -8 -7 -17 -21 -20 -31 -5 -16 -10 -18 -20 -9 -11 9 -14 7
-12 -9 1 -14 6 -20 15 -16 7 2 10 0 7 -5 -13 -20 23 -53 61 -56 46 -3 90 35
76 63 -10 21 -9 113 1 130 4 6 -4 24 -18 40 -13 15 -25 24 -25 19z"/>
<path d="M1355 2879 c-4 -6 -13 -8 -20 -5 -8 3 -14 -2 -14 -12 0 -9 -2 -29 -5
-44 -2 -16 0 -28 5 -28 6 0 7 -6 2 -12 -13 -21 -14 -48 -1 -48 6 0 20 -7 30
-17 11 -10 18 -12 18 -4 0 7 8 6 25 -5 14 -9 25 -12 25 -8 0 17 -15 30 -35 31
-32 0 -51 12 -52 32 -1 11 5 22 13 25 8 3 14 11 14 18 0 10 -2 10 -8 1 -6 -9
-11 -7 -20 7 -9 15 -9 20 0 20 6 0 9 3 5 6 -3 3 6 17 21 30 15 13 22 24 15 24
-6 0 -15 -5 -18 -11z"/>
<path d="M1010 2840 c0 -5 5 -10 10 -10 6 0 10 5 10 10 0 6 -4 10 -10 10 -5 0
-10 -4 -10 -10z"/>
<path d="M1200 2835 c-7 -8 -19 -14 -28 -13 -8 2 -17 -2 -19 -9 -3 -8 4 -10
22 -7 18 3 24 1 20 -6 -4 -6 -13 -9 -21 -6 -16 6 -19 -10 -4 -19 14 -8 42 14
37 29 -3 6 2 19 11 29 8 9 10 17 5 17 -6 0 -16 -7 -23 -15z"/>
<path d="M1056 2806 c3 -7 -2 -19 -10 -26 -9 -7 -13 -16 -10 -21 6 -11 24 -12
23 -1 -5 30 3 34 26 12 14 -13 27 -21 30 -18 3 2 -4 13 -14 22 -11 10 -18 23
-15 30 2 6 -4 12 -15 13 -12 1 -18 -3 -15 -11z"/>
<path d="M1100 2805 c-11 -13 -9 -15 10 -13 33 4 35 -15 5 -51 -15 -17 -22
-31 -16 -31 5 0 14 7 19 17 8 13 9 10 9 -13 0 -16 -2 -24 -4 -18 -2 6 -20 10
-40 8 -21 -1 -31 1 -25 5 10 6 10 10 -1 20 -12 9 -14 7 -14 -14 0 -14 5 -26
11 -26 6 -1 24 -2 40 -3 16 0 31 -5 32 -11 6 -20 -26 -49 -57 -50 -31 -1 -53
-21 -42 -39 4 -5 10 -1 14 10 6 14 7 10 7 -16 -1 -50 1 -60 10 -60 5 0 8 20 7
45 -1 25 2 45 7 45 5 0 6 -10 2 -22 -6 -20 -5 -21 9 -9 9 7 14 17 11 22 -3 5
-1 9 5 9 5 0 11 -8 13 -17 3 -15 16 -18 94 -18 l91 0 0 26 c0 20 -4 25 -19 21
-10 -2 -20 2 -24 11 -3 9 -15 14 -30 12 -13 -1 -27 2 -30 6 -9 15 -20 10 -20
-10 0 -13 7 -19 18 -18 10 1 18 5 18 9 0 4 16 -2 35 -13 19 -12 35 -22 35 -23
0 -2 -18 -3 -40 -3 -35 0 -37 2 -22 13 16 12 15 13 -5 11 -13 -1 -23 -7 -23
-14 0 -7 -5 -13 -11 -13 -5 0 -8 4 -5 9 3 5 -2 15 -11 22 -14 12 -15 11 -9 -9
4 -12 3 -22 -1 -22 -11 0 -10 166 0 176 4 4 7 2 7 -4 0 -7 5 -12 11 -12 5 0
-2 16 -17 35 -30 39 -36 42 -54 20z m27 -187 c1 -26 -1 -29 -7 -13 -6 17 -3
45 5 45 1 0 2 -15 2 -32z"/>
<path d="M1224 2795 c9 -14 13 -25 8 -25 -4 0 -8 -9 -9 -19 -1 -14 3 -18 15
-14 15 4 15 3 2 -6 -9 -7 -10 -11 -3 -11 17 0 26 19 16 33 -4 7 -8 21 -8 32 1
20 -12 35 -29 35 -4 0 -1 -11 8 -25z"/>
<path d="M1470 2800 c-12 -8 -12 -10 4 -16 14 -5 15 -9 4 -16 -10 -8 -10 -9 2
-5 8 2 16 13 16 25 1 24 -4 26 -26 12z"/>
<path d="M894 2788 c-4 -6 2 -19 13 -28 20 -16 20 -17 2 -28 -13 -8 -19 -9
-19 -1 0 5 -5 7 -11 4 -14 -9 -5 -17 25 -20 31 -4 42 22 20 46 -9 10 -13 23
-9 28 3 6 2 11 -4 11 -5 0 -13 -5 -17 -12z"/>
<path d="M1435 2790 c3 -5 8 -10 11 -10 2 0 4 5 4 10 0 6 -5 10 -11 10 -5 0
-7 -4 -4 -10z"/>
<path d="M950 2780 c0 -5 5 -10 10 -10 6 0 10 5 10 10 0 6 -4 10 -10 10 -5 0
-10 -4 -10 -10z"/>
<path d="M1110 2780 c0 -5 5 -10 10 -10 6 0 10 5 10 10 0 6 -4 10 -10 10 -5 0
-10 -4 -10 -10z"/>
<path d="M1063 2750 c-2 -24 15 -36 29 -22 8 8 7 16 -2 27 -17 20 -25 19 -27
-5z"/>
<path d="M1522 2758 c-17 -17 -15 -33 2 -19 11 10 16 8 20 -6 3 -10 16 -19 28
-20 23 -2 23 -2 -2 19 -14 11 -24 25 -22 29 3 13 -12 11 -26 -3z"/>
<path d="M1203 2715 c0 -25 2 -27 37 -27 40 0 50 2 50 11 0 5 -19 8 -42 6 -24
-2 -37 -1 -30 4 10 6 10 10 -1 20 -12 9 -14 7 -14 -14z"/>
<path d="M1424 2719 c-2 -4 3 -9 11 -13 8 -3 17 -2 19 3 6 9 36 8 53 -2 6 -4
16 -1 22 7 9 10 0 13 -45 12 -31 0 -57 -4 -60 -7z"/>
<path d="M1600 2715 c-7 -9 -23 -13 -38 -10 -30 5 -56 -12 -60 -40 -3 -19 -2
-19 15 2 12 15 27 21 46 19 18 -2 32 3 40 14 11 16 14 16 42 -2 17 -10 25 -18
20 -18 -6 0 -10 -33 -10 -80 0 -44 3 -80 7 -80 9 0 10 5 10 90 1 36 5 68 10
71 10 6 -31 43 -53 47 -9 1 -22 -5 -29 -13z"/>
<path d="M1326 2707 c5 -13 -14 -36 -51 -62 -18 -13 -18 -14 -2 -15 9 0 17 5
17 12 0 6 6 3 14 -8 11 -14 11 -21 3 -26 -9 -6 -9 -10 0 -16 8 -5 8 -12 -3
-26 -8 -11 -14 -15 -14 -10 0 12 -89 12 -107 1 -7 -5 -13 -4 -13 1 0 5 -10 8
-22 8 -13 -1 -29 2 -37 8 -9 7 -17 5 -27 -9 -16 -22 -14 -37 7 -44 11 -3 12
-1 2 10 -8 10 -9 19 -1 29 8 13 9 12 5 -2 -4 -12 0 -16 14 -15 10 1 19 5 19 9
0 5 9 3 20 -4 16 -11 17 -14 5 -21 -13 -7 -13 -12 5 -34 12 -15 18 -34 15 -45
-4 -10 -2 -18 3 -18 19 0 20 40 2 63 -15 19 -16 25 -5 41 8 10 18 15 24 12 5
-4 12 -2 15 2 4 7 51 9 51 2 0 -1 8 -3 18 -5 9 -2 26 -14 37 -27 11 -12 19
-19 20 -14 0 5 -7 18 -17 28 -9 10 -12 18 -7 18 6 0 10 23 10 50 0 28 -4 50
-10 50 -5 0 1 11 13 24 13 14 20 29 16 35 -9 15 -25 14 -19 -2z"/>
<path d="M1460 2697 c0 -5 -7 -7 -15 -4 -8 4 -17 2 -20 -3 -3 -5 -11 -7 -18
-5 -18 7 -43 -17 -44 -43 -2 -20 1 -22 13 -11 12 10 12 14 2 20 -7 5 -8 9 -3
9 6 0 17 -4 24 -9 9 -6 22 -6 33 0 10 5 18 6 18 1 0 -11 -49 -34 -59 -28 -4 3
-8 -7 -8 -22 0 -20 5 -28 19 -28 12 0 16 5 13 18 -4 11 1 21 15 28 13 7 20 7
20 0 0 -5 -7 -10 -15 -10 -8 0 -15 -4 -15 -10 0 -13 6 -13 30 0 14 8 18 19 15
51 -2 30 0 38 8 30 16 -16 23 -14 24 7 1 11 -5 18 -18 18 -10 0 -19 -4 -19 -9z
m-24 -29 c-9 -5 -23 -5 -32 0 -12 6 -7 9 16 9 23 0 28 -3 16 -9z"/>
<path d="M1600 2685 c-7 -9 -10 -18 -6 -22 3 -4 13 2 22 13 8 10 13 14 10 7
-4 -6 -2 -14 2 -17 10 -6 9 -36 -2 -54 -4 -7 -3 -18 3 -25 7 -9 7 -17 -1 -27
-8 -12 -9 -12 -4 3 6 20 -5 22 -22 5 -17 -17 -15 -24 8 -25 28 -2 34 13 35 82
1 70 -17 94 -45 60z"/>
<path d="M994 2643 c1 -27 5 -54 9 -60 5 -7 4 -13 -2 -13 -5 0 -8 -11 -6 -25
1 -14 -2 -28 -6 -31 -16 -10 -9 -23 9 -18 14 5 14 4 2 -4 -9 -7 -19 -7 -26 -2
-11 10 -24 4 -24 -11 0 -6 27 -6 55 1 19 5 34 0 48 -15 13 -13 18 -12 39 5
l23 19 -22 -2 c-13 -1 -23 -5 -23 -11 0 -5 -8 -2 -18 7 -10 10 -22 14 -25 10
-6 -6 -9 4 -6 23 0 4 -4 10 -9 13 -7 4 -5 13 3 25 13 17 14 16 11 -10 -4 -35
17 -52 62 -49 20 1 38 9 47 23 14 19 14 21 -5 19 -11 -1 -19 -6 -16 -12 6 -17
-63 -13 -73 4 -5 8 -7 20 -4 28 3 7 -2 16 -12 19 -9 4 -14 13 -11 20 3 7 2 16
-3 18 -9 6 -8 36 2 52 6 11 0 24 -13 24 -3 0 -6 -21 -6 -47z"/>
<path d="M1155 2665 c1 -14 6 -29 10 -33 5 -4 5 1 2 10 -3 10 -2 20 4 23 10 7
3 25 -11 25 -4 0 -7 -11 -5 -25z"/>
<path d="M1522 2659 c-15 -23 -16 -40 -1 -19 9 13 10 13 8 0 -3 -26 1 -40 10
-40 4 0 7 17 5 37 -1 20 1 31 5 25 6 -10 10 -10 20 1 9 12 7 15 -12 15 -13 0
-29 -9 -35 -19z"/>
<path d="M1472 2653 c2 -10 13 -28 25 -39 l21 -21 -25 0 c-18 0 -21 2 -12 8 8
5 10 9 6 9 -5 0 -23 -10 -40 -22 -35 -25 -55 -28 -76 -13 -11 8 -13 6 -9 -5 6
-18 57 -22 77 -6 8 6 45 11 82 11 38 1 63 -2 57 -6 -7 -4 -16 -5 -20 -3 -4 3
-8 0 -8 -6 0 -6 -5 -8 -12 -3 -20 12 -41 13 -57 2 -14 -9 -14 -10 1 -5 10 3
20 1 23 -5 4 -5 11 -6 17 -3 6 4 14 1 18 -5 5 -9 16 -5 38 14 31 26 43 65 21
65 -6 0 -9 -6 -6 -13 3 -9 -6 -13 -30 -14 -29 -1 -38 5 -59 38 -26 42 -37 49
-32 22z"/>
<path d="M1014 2640 c0 -11 5 -19 11 -17 5 2 10 10 10 17 0 7 -5 15 -10 17 -6
2 -11 -6 -11 -17z"/>
<path d="M1559 2638 c-11 -20 -5 -38 13 -38 7 0 7 4 0 13 -8 9 -8 17 0 27 8
13 9 13 5 -1 -4 -12 2 -16 22 -16 18 0 27 6 27 17 0 24 -54 22 -67 -2z"/>
<path d="M1360 2600 c0 -5 5 -10 10 -10 6 0 10 5 10 10 0 6 -4 10 -10 10 -5 0
-10 -4 -10 -10z"/>
<path d="M1220 2538 c0 -4 4 -9 8 -12 5 -3 8 -15 7 -28 -2 -22 10 -38 29 -38
4 0 1 11 -8 25 -9 14 -13 25 -8 25 4 0 8 8 9 18 1 11 -5 18 -18 18 -10 0 -19
-4 -19 -8z"/>
<path d="M1122 2488 c-18 -18 -15 -25 11 -24 12 0 22 7 22 15 0 19 -18 24 -33
9z"/>
<path d="M1271 2480 c2 -8 -2 -25 -9 -37 -13 -23 -7 -29 14 -15 12 8 12 48 0
59 -4 5 -7 1 -5 -7z"/>
<path d="M1230 2440 c-18 -33 -42 -51 -60 -44 -26 11 -60 13 -65 4 -3 -4 2
-10 10 -14 8 -3 17 -1 21 5 4 6 13 4 25 -7 18 -16 20 -16 44 6 14 13 25 19 25
13 0 -6 11 -10 25 -8 31 3 40 11 26 20 -6 3 -11 1 -11 -4 0 -8 -7 -7 -20 1
-12 8 -15 15 -8 19 6 4 8 13 6 20 -3 9 -9 6 -18 -11z"/>
<path d="M1329 2460 c-6 -32 -3 -69 7 -78 17 -16 30 4 14 23 -6 8 -9 18 -7 23
3 4 2 14 -4 22 -5 8 -9 13 -10 10z"/>
<path d="M1009 2448 c-7 -29 -3 -46 11 -45 19 1 20 39 2 45 -7 2 -12 2 -13 0z"/>
<path d="M1069 2389 c26 -21 35 -20 26 2 -3 8 -16 15 -28 16 l-22 2 24 -20z"/>
<path d="M1140 2380 c0 -7 -7 -10 -15 -7 -8 4 -17 2 -20 -3 -4 -6 -14 -6 -27
1 -14 7 -23 8 -31 0 -10 -10 -6 -11 58 -12 24 -1 26 -3 12 -10 -10 -6 -24 -6
-34 -1 -20 10 -43 5 -43 -9 0 -6 4 -7 10 -4 5 3 18 2 27 -4 11 -6 24 -6 35 0
11 6 18 6 18 0 0 -12 -29 -23 -41 -15 -5 3 -9 1 -9 -5 0 -17 20 -23 35 -11 9
8 15 8 15 2 0 -6 -6 -13 -12 -16 -7 -3 -4 -5 7 -3 17 2 20 9 19 44 -1 24 2 41
6 38 4 -2 6 -14 5 -27 -2 -22 10 -38 29 -38 4 0 1 11 -8 24 -9 15 -12 26 -5
28 6 2 1 12 -10 22 -14 12 -21 15 -21 6z"/>
<path d="M1201 2338 c-6 -10 -9 -23 -7 -27 7 -11 -32 -46 -41 -38 -3 4 -1 7 5
7 7 0 12 5 12 12 0 6 -9 3 -20 -7 -17 -15 -24 -16 -45 -7 -14 6 -26 8 -26 4
-7 -36 -5 -53 5 -49 13 5 16 -96 3 -109 -4 -5 -5 0 -1 11 7 18 6 18 -9 6 -9
-7 -14 -17 -11 -22 17 -27 53 10 48 50 -2 17 0 31 5 31 5 0 8 -17 7 -38 -2
-39 -2 -39 36 -39 l37 0 -14 28 c-18 35 -38 48 -33 23 2 -11 7 -22 13 -26 5
-4 6 -10 2 -15 -12 -11 -25 16 -22 45 2 17 -3 26 -16 29 -11 3 -19 10 -19 15
0 5 4 7 9 4 5 -3 15 2 22 11 12 14 11 15 -9 9 -12 -4 -22 -3 -22 2 0 6 12 9
28 7 35 -4 74 30 67 59 -6 19 -5 20 5 3 9 -15 8 -22 -6 -38 -9 -10 -15 -22
-12 -25 3 -3 15 7 27 22 15 20 18 31 11 44 -12 22 -13 40 -1 22 6 -10 10 -10
20 1 9 12 7 15 -12 15 -13 0 -29 -9 -36 -20z m-101 -78 c0 -5 -2 -10 -4 -10
-3 0 -8 5 -11 10 -3 6 -1 10 4 10 6 0 11 -4 11 -10z"/>
<path d="M1352 2328 c-12 -12 -22 -18 -22 -12 0 6 -10 10 -22 10 -13 -1 -28 2
-35 7 -17 12 -35 -1 -29 -21 7 -24 -28 -63 -59 -67 -37 -4 -51 -20 -35 -40 17
-20 25 -19 27 4 1 14 -3 18 -15 14 -14 -4 -15 -3 -2 6 9 6 18 7 24 1 6 -6 16
-4 28 7 10 9 18 12 18 7 0 -6 10 -10 23 -11 22 -2 22 -2 2 15 l-20 17 20 20
c11 11 23 19 28 18 4 -2 7 2 7 7 0 6 8 5 20 -2 14 -9 16 -15 7 -21 -9 -7 -9
-10 1 -14 8 -3 5 -10 -10 -23 l-23 -19 23 2 c12 1 22 6 22 11 0 5 11 -1 25
-14 24 -22 26 -22 44 -6 13 12 21 14 26 6 7 -11 25 -4 25 10 0 9 -35 7 -60 -4
-15 -6 -60 26 -60 42 0 10 12 25 33 41 14 11 20 11 34 0 15 -13 15 -12 4 9
-15 28 -21 28 -49 0z"/>
<path d="M1597 2319 c-9 -6 -22 -7 -28 -3 -7 4 -10 1 -7 -6 6 -20 21 -22 43
-6 24 17 17 29 -8 15z"/>
<path d="M1469 2317 c-1 -1 -3 -12 -4 -24 -3 -27 7 -29 25 -8 7 8 18 15 24 15
6 0 5 -4 -3 -9 -18 -11 -22 -70 -7 -91 6 -8 20 -16 31 -18 l20 -3 -20 16 c-11
9 -21 28 -22 43 -2 23 0 24 8 10 6 -10 15 -18 21 -18 6 0 1 11 -11 24 -15 16
-19 26 -11 31 18 11 6 28 -23 31 -15 1 -28 2 -28 1z"/>
<path d="M1665 2290 c-10 -11 -13 -20 -8 -20 13 0 38 29 31 35 -3 3 -13 -4
-23 -15z"/>
<path d="M1262 2280 c-8 -14 -6 -17 17 -17 19 0 27 5 27 18 0 22 -30 21 -44
-1z"/>
<path d="M1370 2280 c0 -5 5 -10 10 -10 6 0 10 5 10 10 0 6 -4 10 -10 10 -5 0
-10 -4 -10 -10z"/>
<path d="M1551 2276 c-14 -16 -7 -36 12 -36 7 0 6 4 -3 11 -13 9 -12 10 3 5
18 -6 21 1 8 22 -6 10 -10 10 -20 -2z"/>
<path d="M1585 2280 c-3 -5 1 -10 11 -10 13 0 11 -4 -7 -20 -25 -20 -20 -26
10 -11 13 7 17 5 18 -10 2 -25 -31 -43 -55 -29 -13 8 -13 10 -2 9 29 -3 50 1
50 9 0 5 -20 8 -45 8 -25 -1 -45 -3 -44 -6 0 -3 13 -16 30 -28 28 -23 31 -23
54 -8 24 16 30 28 25 51 -1 6 4 4 11 -2 10 -10 10 -16 1 -25 -17 -17 -15 -24
8 -25 11 -1 18 2 15 7 -8 12 6 41 16 34 5 -3 9 0 9 5 0 8 6 7 19 -1 18 -11 18
-12 -3 -29 -11 -10 -16 -18 -10 -19 16 0 41 32 41 52 0 16 -25 19 -62 7 -19
-6 -54 12 -60 32 -7 21 -20 25 -30 9z"/>
<path d="M1457 2238 c-20 -25 -28 -30 -35 -20 -6 10 -13 8 -27 -8 -18 -20 -8
-29 12 -9 7 7 9 0 8 -23 -4 -49 -4 -50 -15 -43 -5 3 -10 2 -10 -3 0 -5 10 -9
23 -9 20 0 23 4 21 38 -1 22 2 39 7 39 4 0 7 -12 7 -27 -1 -47 1 -50 27 -50
21 0 23 2 14 14 -9 10 -14 11 -20 2 -4 -6 -6 4 -5 22 2 19 -1 39 -6 46 -6 7
-3 13 9 17 10 3 19 15 20 26 2 26 0 26 -30 -12z"/>
<path d="M1026 2251 c-4 -6 -14 -8 -24 -5 -14 5 -14 4 1 -6 14 -9 22 -9 30 -1
6 6 8 13 5 16 -3 4 -9 2 -12 -4z"/>
<path d="M1270 2250 c0 -5 5 -10 10 -10 6 0 10 5 10 10 0 6 -4 10 -10 10 -5 0
-10 -4 -10 -10z"/>
<path d="M1198 2215 c-20 -15 -20 -33 -2 -64 11 -19 25 -28 41 -28 19 0 21 2
12 14 -10 11 -14 11 -20 1 -4 -6 -6 5 -5 25 2 20 -1 37 -5 37 -9 0 -13 -14
-10 -40 2 -13 0 -13 -8 -1 -6 9 -6 22 -1 31 14 27 144 22 164 -5 9 -11 16 -15
16 -9 0 5 -6 19 -14 29 -12 16 -27 20 -84 20 -39 1 -76 -4 -84 -10z"/>
<path d="M1474 2190 c4 -39 20 -57 38 -43 7 5 23 8 36 7 22 -1 28 6 15 19 -3
4 -12 2 -20 -4 -7 -6 -13 -7 -13 -2 0 5 -9 9 -19 10 -14 1 -18 -3 -14 -15 4
-14 3 -15 -5 -2 -7 9 -7 18 -1 26 6 7 4 16 -6 24 -13 11 -14 8 -11 -20z"/>
<path d="M1680 2210 c-8 -5 -11 -12 -7 -16 4 -4 15 0 24 9 18 18 8 23 -17 7z"/>
<path d="M1067 2203 c-4 -3 -3 -11 3 -17 5 -7 5 -17 -2 -26 -8 -12 -9 -12 -4
3 3 9 1 17 -4 17 -15 0 -23 -21 -11 -33 15 -15 33 3 36 37 3 25 -5 33 -18 19z"/>
<path d="M1235 2190 c-11 -18 13 -45 42 -46 21 -1 29 3 29 16 0 11 -9 17 -27
17 -20 0 -26 -4 -22 -16 4 -14 3 -14 -5 -1 -8 10 -8 18 0 27 7 9 7 13 0 13 -6
0 -14 -4 -17 -10z"/>
<path d="M1270 2190 c0 -5 5 -10 10 -10 6 0 10 5 10 10 0 6 -4 10 -10 10 -5 0
-10 -4 -10 -10z"/>
<path d="M1307 2186 c4 -6 8 -15 8 -21 2 -26 18 -42 41 -42 20 0 22 2 13 14
-10 11 -14 11 -20 1 -5 -7 -9 -8 -9 -3 0 6 5 17 10 25 8 12 10 12 10 1 0 -8 3
-12 6 -9 11 12 -20 46 -42 46 -15 0 -21 -5 -17 -12z m24 -23 c-12 -20 -14 -14
-5 12 4 9 9 14 11 11 3 -2 0 -13 -6 -23z"/>
<path d="M1386 2168 c-17 -24 -16 -31 5 -23 8 3 15 14 16 25 2 26 -2 25 -21
-2z"/>
<path d="M1713 2173 c-4 -10 -9 -11 -19 -2 -11 9 -22 3 -51 -27 l-38 -39 1
-102 c1 -90 -1 -100 -13 -83 -9 12 -11 26 -6 37 7 15 9 96 4 149 -1 6 -12 12
-26 12 -21 0 -23 -3 -14 -15 8 -9 14 -10 19 -3 4 6 6 -14 6 -43 -1 -33 -5 -53
-11 -50 -6 2 -11 -6 -12 -17 -1 -11 2 -20 8 -20 5 0 9 5 9 12 0 6 3 9 6 6 3
-4 1 -15 -5 -26 -7 -14 -6 -24 5 -40 9 -13 11 -22 5 -22 -6 0 -11 4 -11 9 0
12 -37 6 -55 -9 -8 -6 -11 -18 -8 -26 3 -8 0 -14 -6 -14 -6 0 -10 3 -10 8 1 4
1 13 0 21 -1 19 -14 6 -18 -18 -3 -21 27 -34 48 -20 8 5 26 6 40 4 16 -3 32 1
39 10 10 12 7 14 -25 10 -23 -3 -34 -1 -30 5 3 5 2 10 -4 10 -5 0 -12 -5 -14
-10 -3 -6 -4 -5 -3 2 2 7 12 12 22 10 10 -2 30 -4 44 -6 14 -2 29 -4 33 -4 4
-1 -4 -13 -20 -26 -15 -13 -30 -21 -33 -18 -3 4 -14 8 -25 10 -19 2 -18 1 3
-17 23 -20 23 -20 45 0 12 11 27 17 34 15 9 -4 12 2 9 17 -4 26 29 75 38 55 2
-7 4 -2 3 12 -1 15 3 24 10 23 7 -2 10 4 7 12 -9 22 -19 18 -32 -10 -6 -14
-16 -25 -22 -25 -6 0 -9 -4 -6 -8 2 -4 1 -13 -2 -20 -4 -6 -7 37 -7 96 0 111
9 150 27 118 6 -10 7 -20 4 -23 -3 -4 -6 -1 -6 5 0 7 -4 12 -9 12 -6 0 -9 -9
-8 -20 1 -12 7 -18 14 -16 6 3 10 0 8 -7 -5 -15 22 -53 31 -44 4 4 2 12 -3 19
-6 7 -10 24 -9 38 1 14 -2 33 -7 44 -11 23 7 46 25 28 8 -8 8 -15 -2 -27 -15
-18 0 -20 19 -2 11 10 11 8 0 -10 -7 -12 -17 -19 -21 -17 -17 10 -7 -15 10
-26 16 -11 16 -11 0 -6 -22 7 -23 -1 -2 -21 13 -13 13 -17 2 -24 -7 -5 -20 -6
-28 -4 -10 3 -16 -1 -16 -13 0 -14 8 -19 28 -19 15 0 25 4 22 8 -3 5 3 20 12
34 16 24 16 27 0 44 -21 23 -3 39 22 19 12 -9 10 -3 -6 26 -28 47 -25 52 30
55 29 1 13 16 -19 16 -14 1 -27 -5 -30 -12z"/>
<path d="M1590 2160 c0 -5 5 -10 10 -10 6 0 10 5 10 10 0 6 -4 10 -10 10 -5 0
-10 -4 -10 -10z"/>
<path d="M1670 2140 c0 -5 5 -10 10 -10 6 0 10 5 10 10 0 6 -4 10 -10 10 -5 0
-10 -4 -10 -10z"/>
<path d="M1270 2130 c0 -5 5 -10 10 -10 6 0 10 5 10 10 0 6 -4 10 -10 10 -5 0
-10 -4 -10 -10z"/>
<path d="M1305 2130 c-3 -5 -1 -10 4 -10 6 0 11 5 11 10 0 6 -2 10 -4 10 -3 0
-8 -4 -11 -10z"/>
<path d="M1510 2090 c0 -9 23 -30 32 -30 4 0 5 8 2 18 -5 14 -4 14 4 2 7 -9 7
-19 2 -26 -10 -11 -4 -24 11 -24 8 0 5 42 -5 58 -6 11 -46 13 -46 2z"/>
<path d="M1105 2071 c-3 -8 4 -28 15 -43 20 -27 19 -55 -1 -43 -15 10 -10 -11
5 -24 10 -8 21 -9 33 -3 10 5 23 7 29 5 7 -2 10 7 8 27 -2 19 0 29 6 25 6 -4
10 -12 9 -18 -3 -27 2 -34 26 -34 21 0 23 2 14 14 -10 11 -14 11 -21 1 -6 -9
-7 -6 -3 9 4 15 -1 26 -17 38 l-23 17 25 -8 c22 -6 23 -5 11 9 -19 23 -45 6
-47 -30 -2 -42 -3 -45 -14 -38 -5 3 -10 1 -10 -5 0 -6 -5 -8 -11 -4 -8 5 -6
10 7 18 11 6 21 20 22 30 3 17 2 18 -12 7 -16 -13 -21 -6 -17 22 0 4 -7 7 -16
7 -16 1 -16 2 2 12 23 14 46 16 60 6 6 -4 17 -3 25 2 18 12 18 12 -47 14 -39
2 -54 -2 -58 -13z"/>
<path d="M1225 2072 c-3 -8 -1 -20 5 -27 5 -6 7 -14 4 -18 -13 -13 16 -42 43
-43 21 -1 29 3 29 16 0 11 -9 17 -27 17 -20 0 -26 -4 -22 -16 4 -14 3 -14 -5
-1 -8 10 -8 18 0 27 7 9 6 14 -6 19 -15 6 -15 8 1 19 13 10 20 10 25 2 6 -8
10 -9 16 -1 5 7 19 3 43 -10 31 -18 35 -26 35 -58 -1 -31 2 -36 19 -35 11 1
26 7 33 14 8 7 17 11 22 8 4 -3 13 2 20 10 9 11 8 14 -9 12 -12 -1 -21 -5 -21
-10 0 -5 -9 1 -19 14 l-20 24 2 -22 c1 -13 5 -23 10 -23 4 0 5 -5 1 -11 -10
-16 -23 8 -19 38 2 18 -5 28 -26 39 -16 8 -29 18 -29 22 0 15 -99 9 -105 -6z"/>
<path d="M1344 2079 c-5 -9 22 -19 30 -11 10 9 46 10 52 0 6 -9 24 -1 24 11 0
9 -100 9 -106 0z"/>
<path d="M1143 2048 c1 -21 8 -23 25 -6 17 17 15 24 -7 24 -13 0 -19 -7 -18
-18z"/>
<path d="M1380 2060 c0 -8 22 -30 30 -30 3 0 6 8 7 18 1 11 -5 18 -18 18 -10
0 -19 -3 -19 -6z"/>
<path d="M1440 2056 c-8 -6 -16 -18 -17 -26 -2 -12 8 -15 47 -15 28 0 50 3 50
7 0 9 -11 11 -54 10 -15 0 -25 2 -21 6 11 11 75 10 77 -2 0 -6 2 -24 2 -39 1
-15 6 -31 11 -35 6 -4 2 -15 -11 -28 -20 -20 -22 -20 -33 -2 -6 10 -8 18 -3
18 4 0 8 9 9 19 1 14 -3 18 -15 14 -15 -4 -15 -3 -2 6 9 7 10 11 3 11 -17 0
-26 -19 -16 -33 5 -7 8 -22 7 -34 -2 -28 24 -38 47 -17 10 9 23 13 28 9 12 -7
10 22 -1 41 -4 6 -5 21 -3 34 7 34 -19 63 -58 65 -18 2 -39 -2 -47 -9z"/>
<path d="M1262 2042 c7 -9 14 -19 15 -21 2 -3 10 4 19 15 8 10 13 14 10 7 -4
-6 -2 -14 2 -17 10 -6 9 -36 -1 -52 -4 -7 3 -11 18 -11 25 0 27 2 27 37 0 11
0 24 -1 29 -1 12 -29 23 -69 26 -30 3 -32 2 -20 -13z m74 -43 c1 -17 -1 -28
-4 -25 -3 3 -6 19 -7 36 -1 17 1 28 4 24 3 -3 6 -19 7 -35z"/>
<path d="M1636 1998 c2 -66 2 -66 13 -48 6 8 7 19 3 24 -9 16 -10 46 0 52 9 6
1 24 -11 24 -4 0 -6 -24 -5 -52z"/>
<path d="M1500 1995 c7 -9 15 -13 17 -11 7 7 -7 26 -19 26 -6 0 -6 -6 2 -15z"/>
<path d="M1270 1970 c0 -5 5 -10 10 -10 6 0 10 5 10 10 0 6 -4 10 -10 10 -5 0
-10 -4 -10 -10z"/>
<path d="M1503 1949 c-2 -17 1 -18 12 -9 8 7 12 16 9 21 -9 16 -20 10 -21 -12z"/>
<path d="M1485 1817 c1 -12 7 -23 14 -25 6 -2 11 0 10 5 -3 20 2 34 11 28 6
-3 10 -2 10 3 0 5 -10 10 -23 10 -18 0 -23 -6 -22 -21z"/>
<path d="M1515 3760 c3 -5 10 -10 16 -10 5 0 9 5 9 10 0 6 -7 10 -16 10 -8 0
-12 -4 -9 -10z"/>
<path d="M1545 3752 c-3 -8 -3 -17 0 -22 7 -11 -22 -33 -35 -25 -6 3 -8 10 -5
15 3 5 -4 8 -15 7 -25 -2 -26 -14 -1 -22 11 -3 18 -12 15 -19 -3 -7 2 -13 10
-13 9 0 18 9 22 19 5 18 6 18 32 -1 15 -10 29 -20 32 -22 3 -1 14 3 26 9 15 8
24 8 31 1 8 -8 11 -4 10 12 0 13 2 35 5 49 5 21 2 25 -18 26 -14 1 -23 -3 -22
-10 1 -6 -3 -21 -10 -34 -7 -12 -11 -26 -8 -31 3 -4 -1 -8 -8 -8 -8 0 -12 6
-9 14 3 9 0 11 -10 7 -8 -3 -18 -1 -22 5 -3 6 0 9 8 6 9 -4 13 3 13 24 0 22
-4 29 -18 28 -9 -1 -20 -7 -23 -15z m105 -37 c-6 -15 -13 -25 -16 -22 -3 3 -1
15 6 26 6 12 8 27 4 34 -5 9 -4 9 5 1 9 -8 9 -18 1 -39z m-80 25 c0 -5 -5 -10
-11 -10 -5 0 -7 5 -4 10 3 6 8 10 11 10 2 0 4 -4 4 -10z"/>
<path d="M1595 3731 c-3 -5 -1 -12 5 -16 5 -3 10 1 10 9 0 18 -6 21 -15 7z"/>
<path d="M1476 3691 c-4 -7 -5 -15 -2 -18 9 -9 19 4 14 18 -4 11 -6 11 -12 0z"/>
<path d="M1755 3760 c3 -5 10 -10 16 -10 5 0 9 5 9 10 0 6 -7 10 -16 10 -8 0
-12 -4 -9 -10z"/>
<path d="M1785 3752 c-3 -8 -1 -20 5 -27 5 -6 7 -14 4 -18 -3 -3 -1 -14 5 -25
10 -20 61 -26 77 -9 11 11 12 97 1 97 -5 0 -7 -6 -4 -14 3 -7 1 -18 -5 -24 -8
-8 -8 -15 0 -24 8 -10 8 -18 0 -28 -8 -13 -9 -13 -5 1 4 12 -2 16 -23 16 -21
0 -27 -4 -23 -16 4 -14 3 -14 -5 -1 -7 9 -8 18 -1 26 7 9 5 15 -7 22 -9 5 -12
12 -7 15 6 4 16 -5 23 -18 16 -30 30 -32 30 -4 0 11 -4 17 -10 14 -9 -5 -14 7
-11 27 1 13 -39 4 -44 -10z"/>
<path d="M1995 3760 c3 -5 10 -10 16 -10 5 0 9 5 9 10 0 6 -7 10 -16 10 -8 0
-12 -4 -9 -10z"/>
<path d="M2025 3751 c-3 -7 2 -22 11 -32 12 -14 13 -22 4 -38 -11 -22 -6 -41
12 -41 7 0 7 4 -1 13 -8 10 -7 17 2 26 6 6 12 29 13 51 0 31 -3 38 -18 37 -9
-1 -20 -8 -23 -16z m25 -11 c0 -5 -5 -10 -11 -10 -5 0 -7 5 -4 10 3 6 8 10 11
10 2 0 4 -4 4 -10z"/>
<path d="M2113 3756 c3 -7 1 -18 -5 -24 -8 -8 -7 -13 5 -18 15 -5 14 -8 -6
-24 l-22 -19 23 2 c12 1 22 6 22 11 0 5 11 -1 24 -13 14 -13 29 -20 35 -16 16
9 14 25 -2 19 -21 -8 -65 42 -62 71 2 14 -1 25 -7 25 -6 0 -8 -6 -5 -14z"/>
<path d="M2235 3760 c3 -5 10 -10 16 -10 5 0 9 5 9 10 0 6 -7 10 -16 10 -8 0
-12 -4 -9 -10z"/>
<path d="M2352 3758 c1 -7 -5 -27 -15 -44 -12 -24 -22 -31 -42 -29 -14 2 -25
-1 -25 -6 0 -6 -6 -7 -12 -2 -21 13 -48 14 -48 1 0 -6 -7 -20 -17 -30 -10 -11
-12 -18 -4 -18 7 0 6 -8 -5 -25 -9 -14 -12 -25 -8 -25 17 0 30 15 31 35 0 32
12 51 32 52 11 1 22 -5 25 -13 3 -8 11 -14 18 -14 10 0 10 2 1 8 -9 6 -7 11 7
20 15 9 20 9 20 1 0 -8 7 -6 18 4 10 10 21 15 23 12 3 -2 5 4 6 13 1 9 4 29 7
45 2 15 0 27 -5 27 -6 0 -9 -6 -7 -12z"/>
<path d="M2075 3729 c-4 -6 -2 -14 4 -18 8 -5 5 -13 -8 -25 -27 -25 -8 -44 41
-40 43 3 64 -18 47 -49 -6 -9 -7 -23 -3 -30 5 -9 4 -9 -5 -1 -9 8 -10 18 -3
30 10 19 6 44 -7 44 -6 0 -10 -20 -11 -55 0 -34 4 -43 21 -42 21 1 33 23 19
32 -6 4 -6 14 1 26 8 16 7 26 -5 44 -13 19 -22 23 -56 20 -37 -3 -40 -2 -28
13 7 10 16 19 20 22 3 3 0 13 -7 23 -9 13 -15 15 -20 6z"/>
<path d="M1950 3718 c0 -4 5 -10 10 -13 6 -3 10 -1 10 6 0 9 4 8 15 -1 11 -9
12 -17 4 -32 -18 -33 12 -67 58 -64 20 2 39 8 40 13 2 6 -13 9 -36 7 -46 -3
-67 17 -49 49 6 12 6 23 -2 32 -12 14 -50 17 -50 3z"/>
<path d="M1964 3692 c-6 -4 -9 -18 -7 -32 2 -14 4 -33 4 -42 0 -9 6 -15 13
-12 6 2 22 -5 34 -17 18 -16 20 -24 12 -34 -7 -8 -9 -19 -5 -25 9 -15 25 -12
19 4 -3 8 0 17 6 21 9 5 9 10 1 14 -6 4 -3 11 9 19 13 8 20 9 20 1 0 -5 4 -8
9 -4 6 3 15 -3 20 -14 8 -14 6 -24 -10 -42 -11 -12 -17 -28 -15 -35 3 -9 -1
-11 -12 -7 -14 5 -15 4 -4 -8 7 -8 17 -15 23 -15 5 -1 13 -2 17 -3 16 -2 30
-47 21 -64 -11 -18 4 -57 22 -57 6 0 7 4 4 10 -3 5 4 23 16 40 13 16 20 33 16
36 -3 3 -15 -8 -25 -26 -12 -19 -23 -27 -26 -21 -4 6 -2 11 5 11 7 0 9 3 6 7
-4 3 2 12 13 20 11 8 20 19 20 25 0 6 -6 6 -15 -2 -13 -11 -18 -11 -28 0 -7 7
-7 10 -1 7 6 -3 20 1 32 9 34 24 14 50 -37 49 -33 -1 -38 2 -29 12 6 8 14 10
17 6 3 -4 15 -9 26 -11 18 -2 18 -1 -4 18 -13 11 -18 20 -11 20 10 0 10 3 1
14 -9 11 -10 20 -1 36 11 21 6 40 -12 40 -7 0 -7 -4 0 -13 8 -9 8 -17 0 -27
-8 -12 -9 -12 -4 3 5 17 -8 24 -18 8 -3 -4 -17 -7 -31 -6 -14 2 -25 -1 -25 -7
0 -5 -13 1 -29 14 -15 13 -26 26 -24 31 2 4 -1 7 -7 7 -6 0 -4 10 6 25 16 24
10 32 -12 17z m146 -206 c0 -3 -4 -8 -10 -11 -5 -3 -10 -1 -10 4 0 6 5 11 10
11 6 0 10 -2 10 -4z m25 -6 c-3 -5 -2 -10 4 -10 5 0 12 5 14 10 3 6 4 5 3 -2
-1 -7 -12 -13 -23 -14 -14 -1 -20 3 -16 12 3 8 9 14 15 14 5 0 6 -4 3 -10z"/>
<path d="M2187 3566 c-4 -9 -3 -18 2 -20 9 -6 8 -42 -1 -52 -8 -7 1 -34 12
-34 9 0 7 106 -1 115 -4 3 -9 -1 -12 -9z"/>
<path d="M2150 3530 c0 -8 22 -30 30 -30 3 0 6 9 6 19 0 13 -7 19 -18 18 -10
-1 -18 -4 -18 -7z"/>
<path d="M2185 3433 c9 -14 11 -23 5 -23 -6 0 -8 -4 -5 -10 3 -5 11 -10 17
-10 6 0 9 3 5 6 -3 4 0 19 8 34 13 26 13 27 -16 27 -28 0 -29 -1 -14 -24z"/>
<path d="M2780 3560 c0 -5 6 -10 14 -10 8 0 18 5 21 10 3 6 -3 10 -14 10 -12
0 -21 -4 -21 -10z"/>
<path d="M1710 2604 c0 -6 5 -15 12 -22 7 -7 8 -12 2 -12 -5 0 -10 -9 -11 -20
-2 -23 12 -18 26 8 6 12 3 23 -10 36 -11 11 -19 15 -19 10z"/>
<path d="M1806 2596 c10 -8 16 -18 11 -22 -4 -4 -7 -2 -7 4 0 7 -4 12 -9 12
-6 0 -9 -9 -8 -20 1 -12 7 -18 14 -16 8 3 10 -1 6 -12 -5 -13 1 -11 20 7 15
14 31 20 38 15 8 -5 11 -2 6 8 -3 9 0 21 6 27 6 6 7 11 3 11 -5 0 -20 -12 -34
-27 -14 -16 -23 -21 -20 -12 7 19 -9 39 -31 39 -11 0 -10 -4 5 -14z"/>
<path d="M1915 2600 c3 -5 8 -10 11 -10 2 0 4 5 4 10 0 6 -5 10 -11 10 -5 0
-7 -4 -4 -10z"/>
<path d="M2900 2560 c6 -11 15 -20 20 -20 12 0 9 22 -5 32 -19 14 -26 8 -15
-12z"/>
<path d="M1160 1919 c-13 -9 -12 -10 2 -5 10 3 20 1 23 -4 3 -5 12 -7 21 -3 8
3 12 8 9 11 -11 11 -40 11 -55 1z"/>
<path d="M1225 1912 c-9 -23 -6 -25 19 -8 19 12 26 12 30 3 5 -9 7 -9 12 0 4
9 11 9 30 -3 23 -16 31 -10 16 11 -11 16 -100 14 -107 -3z"/>
<path d="M1345 1920 c-7 -11 21 -20 31 -10 5 5 15 5 24 -1 13 -9 12 -10 -2 -5
-10 3 -18 2 -18 -2 0 -9 21 -32 30 -32 11 0 9 40 -2 46 -17 11 -57 13 -63 4z"/>
<path d="M1187 1889 c-9 -6 -15 -15 -11 -20 3 -5 1 -16 -5 -23 -13 -15 14 -59
32 -53 7 2 23 -4 36 -14 23 -18 41 -17 41 1 0 5 -6 7 -13 4 -21 -8 -50 31 -39
53 5 10 7 24 4 32 -3 9 0 11 7 6 7 -4 10 -13 7 -21 -6 -16 10 -19 19 -4 4 6 1
19 -7 28 -12 15 -11 16 5 3 14 -11 20 -11 34 0 15 13 15 12 3 -8 -8 -12 -26
-28 -40 -35 -14 -7 -27 -14 -29 -15 -7 -4 21 -33 31 -33 6 0 6 6 -1 14 -9 10
-8 15 4 20 8 3 22 3 30 0 10 -4 13 -2 10 8 -3 7 1 22 9 33 15 20 15 20 16 0 0
-11 1 -29 2 -40 0 -11 -2 -33 -5 -48 -5 -22 -3 -27 8 -23 8 3 12 0 9 -7 -3 -9
5 -13 22 -12 15 0 29 6 32 14 3 8 0 11 -6 7 -12 -7 -52 14 -52 28 0 4 6 3 14
-3 20 -17 58 -23 53 -8 -3 7 -10 11 -17 9 -17 -4 -39 16 -39 36 0 9 -1 26 -3
36 -2 10 3 20 10 22 7 1 8 0 2 -3 -5 -2 -10 -9 -10 -14 0 -6 4 -8 9 -4 5 3 9
-9 8 -26 -1 -18 3 -34 10 -36 8 -3 10 9 8 38 -2 27 0 38 5 29 5 -8 7 -17 4
-21 -5 -8 27 -22 34 -15 2 3 -12 22 -32 42 -28 28 -39 34 -50 25 -7 -6 -16 -8
-19 -4 -10 10 -70 11 -88 2 -9 -4 -20 -4 -25 1 -5 5 -16 5 -27 -1z m25 -35
c-2 -10 -3 -27 -3 -37 0 -9 -4 -15 -8 -12 -5 2 -8 16 -8 30 0 13 3 22 8 19 5
-3 9 -1 9 5 0 5 -5 12 -10 14 -6 3 -5 4 2 3 7 -2 12 -12 10 -22z"/>
<path d="M1313 1840 c2 -8 -7 -33 -21 -55 -13 -22 -19 -35 -12 -28 7 6 19 9
28 6 10 -4 13 -2 8 5 -4 6 -2 21 4 32 8 15 8 25 0 38 -8 11 -10 12 -7 2z"/>
<path d="M1433 1839 c3 -9 1 -21 -5 -27 -8 -8 -7 -13 4 -17 12 -5 10 -12 -13
-37 -16 -16 -29 -35 -29 -42 0 -6 5 -4 11 4 9 13 10 12 5 -3 -6 -19 33 -67 54
-67 6 0 8 -4 5 -10 -3 -5 -1 -10 5 -10 6 0 4 -10 -6 -25 -9 -14 -12 -25 -8
-25 20 0 31 16 27 40 -3 27 -4 39 -1 68 2 15 9 18 34 16 37 -3 68 24 59 49 -6
13 -25 16 -60 7 -28 -7 -81 32 -69 51 3 5 0 17 -6 26 -9 15 -11 15 -7 2z m24
-86 c0 -10 -7 -26 -15 -36 -17 -20 -13 -27 17 -30 12 -1 17 -5 12 -10 -5 -5
-17 -4 -29 2 -30 16 -20 85 14 91 0 0 1 -8 1 -17z m21 -32 c-7 -11 -16 -21
-21 -21 -4 0 -1 10 8 23 8 13 14 26 12 29 -2 3 0 2 5 -2 6 -5 4 -16 -4 -29z
m89 14 c1 0 -8 -7 -20 -14 -20 -13 -21 -13 -8 2 17 22 -2 22 -23 1 -17 -17
-19 -14 -10 10 3 9 10 13 15 10 5 -3 9 0 9 7 0 8 5 8 18 -2 9 -7 18 -14 19
-14z"/>
<path d="M1430 1740 c0 -5 5 -10 10 -10 6 0 10 5 10 10 0 6 -4 10 -10 10 -5 0
-10 -4 -10 -10z"/>
<path d="M1270 1811 c0 -6 5 -13 10 -16 6 -3 10 1 10 9 0 9 -4 16 -10 16 -5 0
-10 -4 -10 -9z"/>
<path d="M1396 1812 c-3 -5 1 -15 9 -22 21 -17 27 -9 10 13 -7 10 -16 14 -19
9z"/>
<path d="M1217 1764 c-3 -3 -3 -13 0 -22 4 -14 3 -15 -6 -2 -5 8 -13 11 -17 7
-4 -4 1 -16 10 -26 10 -11 15 -24 12 -30 -10 -15 12 -23 33 -12 13 7 18 20 17
41 -2 35 -31 62 -49 44z m29 -45 c1 -16 -2 -31 -6 -34 -4 -2 -7 14 -7 35 0 45
11 44 13 -1z"/>
<path d="M1282 1743 c-8 -15 -9 -57 -1 -73 1 -3 2 -14 3 -24 1 -11 8 -21 16
-24 13 -5 13 -3 0 14 -11 15 -11 16 0 7 19 -18 35 -16 20 2 -6 8 -8 20 -4 26
5 9 2 10 -9 6 -9 -3 -19 -1 -23 5 -4 6 -3 8 3 5 15 -9 58 27 49 41 -4 7 -16
16 -26 22 -15 8 -21 6 -28 -7z m34 -14 c10 -17 -13 -36 -27 -22 -12 12 -4 33
11 33 5 0 12 -5 16 -11z"/>
<path d="M1290 1720 c0 -5 5 -10 10 -10 6 0 10 5 10 10 0 6 -4 10 -10 10 -5 0
-10 -4 -10 -10z"/>
<path d="M1345 1710 c-3 -11 -10 -20 -15 -20 -14 0 -2 -42 18 -62 22 -22 66
-33 59 -15 -3 7 -10 11 -17 9 -18 -4 -49 27 -47 48 1 14 4 16 14 8 17 -13 17
4 1 21 -11 11 -9 11 9 0 16 -9 19 -17 12 -26 -8 -9 -5 -11 10 -10 27 2 26 10
-3 41 -28 31 -33 32 -41 6z"/>
<path d="M1350 1663 c0 -15 28 -36 39 -29 5 4 12 2 16 -4 10 -17 25 -11 18 8
-7 18 -5 17 17 -12 8 -11 10 -17 3 -13 -17 10 -44 -32 -34 -52 12 -21 8 -66
-5 -64 -5 1 -15 -7 -22 -17 -10 -16 -8 -18 8 -17 10 1 24 11 31 24 9 17 15 20
26 12 9 -9 13 -8 13 0 0 6 -7 14 -15 17 -8 4 -15 10 -15 16 0 5 5 6 10 3 6 -3
10 -1 10 4 0 6 -4 11 -9 11 -15 0 -22 33 -10 44 9 8 10 8 4 -2 -4 -8 0 -21 9
-31 9 -10 16 -24 14 -31 -2 -7 2 -14 9 -17 8 -3 10 4 7 22 -3 18 -1 24 6 20 6
-4 9 -13 6 -21 -6 -17 10 -19 20 -3 3 6 -3 21 -15 32 -14 14 -21 17 -21 8 0
-11 -3 -11 -15 -1 -11 9 -12 17 -5 30 10 18 4 49 -9 51 -30 6 -51 5 -51 -4 0
-6 -9 -2 -20 8 -11 10 -20 13 -20 8z"/>
<path d="M1307 1610 c-14 -11 -28 -16 -31 -11 -7 10 -45 11 -47 1 -9 -35 -3
-53 21 -70 16 -11 32 -20 37 -20 4 0 1 5 -7 11 -13 9 -12 10 2 5 9 -3 27 3 40
14 22 18 22 19 5 37 -17 17 -18 17 -15 -7 3 -22 -1 -25 -32 -25 -22 0 -34 5
-32 13 1 6 -3 12 -10 12 -6 0 -3 6 7 14 17 12 21 12 30 -1 10 -13 13 -13 24 1
7 8 18 13 25 10 6 -2 12 4 13 16 2 25 2 25 -30 0z"/>
<path d="M1346 1568 c1 -24 2 -43 4 -43 1 0 3 -10 4 -23 3 -22 -11 -41 -49
-66 -16 -12 -17 -16 -6 -30 7 -9 18 -16 23 -16 6 0 5 7 -2 15 -11 13 -11 18 0
28 10 9 11 9 6 -1 -5 -8 5 -24 24 -42 17 -16 29 -34 25 -40 -3 -5 -1 -10 4
-10 6 0 11 -8 11 -18 0 -11 8 -18 21 -19 21 -2 21 -2 -1 23 -13 13 -19 24 -14
24 5 0 10 10 11 21 1 15 -1 19 -9 11 -12 -12 -52 24 -54 50 -1 14 2 15 18 7
10 -5 17 -17 16 -26 -2 -9 2 -18 9 -20 19 -7 6 40 -17 58 -17 15 -18 18 -4 23
12 5 14 10 5 20 -6 7 -8 16 -4 19 3 4 0 15 -8 24 -13 16 -12 17 4 4 10 -8 17
-9 17 -3 0 6 -8 19 -17 28 -17 17 -17 18 0 11 10 -4 21 -7 23 -7 3 0 2 -4 -1
-10 -3 -5 -1 -10 5 -10 6 0 4 -10 -6 -24 -15 -24 -15 -25 5 -23 17 1 19 6 15
32 -3 16 -5 38 -5 47 0 10 -6 15 -14 12 -7 -3 -16 -1 -20 5 -13 22 -21 10 -19
-31z"/>
<path d="M1253 1565 c0 -9 4 -14 9 -13 5 2 10 8 10 13 0 5 -5 11 -10 13 -5 1
-9 -4 -9 -13z"/>
<path d="M1290 1560 c0 -5 5 -10 10 -10 6 0 10 5 10 10 0 6 -4 10 -10 10 -5 0
-10 -4 -10 -10z"/>
<path d="M1295 1510 c-3 -5 -3 -14 0 -20 3 -6 -1 -7 -12 -4 -17 5 -17 5 0 -6
21 -14 30 -8 32 20 2 21 -10 27 -20 10z"/>
<path d="M1478 1500 c-18 -13 -24 -27 -22 -45 2 -22 0 -24 -12 -14 -10 8 -14
8 -14 0 0 -6 -5 -11 -11 -11 -8 0 -8 4 1 14 9 12 8 15 -9 13 -15 -1 -20 -6
-15 -17 3 -8 7 -19 8 -25 1 -5 5 -15 8 -21 4 -6 5 -22 3 -34 -5 -24 10 -50 27
-50 7 0 7 4 0 13 -21 26 5 98 44 115 22 11 32 56 9 49 -5 -2 -9 -11 -7 -20 1
-8 -1 -18 -6 -21 -14 -8 -11 32 3 44 15 13 39 4 30 -11 -4 -5 -1 -9 4 -9 15 0
14 25 -3 39 -10 8 -19 6 -38 -9z m-36 -87 c-6 -2 -10 -9 -7 -14 4 -5 -1 -6
-10 -2 -13 5 -14 7 -3 14 7 5 18 8 23 8 6 0 4 -3 -3 -6z"/>
<path d="M1426 1481 c-3 -5 1 -14 9 -21 11 -9 14 -8 12 9 -1 22 -12 28 -21 12z"/>
<path d="M1350 1420 c0 -5 5 -10 10 -10 6 0 10 5 10 10 0 6 -4 10 -10 10 -5 0
-10 -4 -10 -10z"/>
<path d="M1490 1400 c0 -5 5 -10 10 -10 6 0 10 5 10 10 0 6 -4 10 -10 10 -5 0
-10 -4 -10 -10z"/>
<path d="M1320 1375 c-8 -9 -8 -15 -2 -15 12 0 26 19 19 26 -2 2 -10 -2 -17
-11z"/>
<path d="M1443 1357 c0 -16 7 -32 18 -37 28 -15 30 3 5 35 l-23 29 0 -27z"/>
<path d="M1438 1299 c-26 -14 -23 -32 2 -19 11 6 25 8 32 4 6 -4 9 -1 6 6 -6
18 -20 21 -40 9z"/>
<path d="M2780 1800 c0 -5 5 -10 10 -10 6 0 10 5 10 10 0 6 -4 10 -10 10 -5 0
-10 -4 -10 -10z"/>
<path d="M2838 1798 c-4 -36 -3 -44 7 -50 21 -16 27 -7 11 17 -9 14 -12 25 -6
25 5 0 10 5 10 10 0 15 -20 12 -22 -2z"/>
<path d="M2912 1798 c-17 -17 -15 -24 8 -24 22 0 24 4 12 23 -6 10 -11 10 -20
1z"/>
<path d="M2962 1787 c-22 -23 -46 -28 -68 -14 -11 6 -24 0 -24 -13 0 -14 81
-5 90 10 8 13 9 -13 1 -51 0 -3 -20 -5 -43 -5 -23 0 -43 -4 -45 -10 -2 -7 13
-10 42 -9 51 1 78 26 70 65 -3 13 0 29 6 37 20 23 -7 14 -29 -10z"/>
<path d="M3072 1798 c-17 -17 -15 -24 8 -24 22 0 24 4 12 23 -6 10 -11 10 -20
1z"/>
<path d="M3122 1787 c-22 -23 -46 -28 -68 -14 -7 4 -11 -3 -11 -18 0 -25 2
-27 37 -27 33 0 40 2 40 11 0 4 -17 7 -37 5 -25 -2 -32 0 -23 6 8 5 23 7 32 4
10 -3 21 3 27 13 8 15 10 14 8 -9 -1 -15 -11 -34 -22 -43 l-20 -16 20 3 c27 4
45 31 40 58 -3 13 0 29 6 37 20 23 -7 14 -29 -10z"/>
<path d="M3194 1796 c-10 -8 -16 -17 -13 -20 3 -4 17 2 30 13 27 23 13 28 -17
7z"/>
<path d="M3153 1773 c1 -13 5 -23 11 -23 5 0 1 -9 -8 -19 -10 -10 -13 -22 -8
-25 10 -6 10 -36 0 -52 -4 -5 -3 -16 3 -24 11 -18 11 -18 13 48 2 50 9 63 41
75 6 3 6 8 1 13 -5 5 -11 4 -13 -4 -3 -8 -11 -5 -23 10 l-19 23 2 -22z"/>
<path d="M2780 1765 c-8 -9 -8 -15 -2 -15 12 0 26 19 19 26 -2 2 -10 -2 -17
-11z"/>
<path d="M2868 1732 c-9 -10 -13 -10 -19 -1 -4 8 -12 3 -24 -15 -9 -14 -21
-23 -26 -20 -5 3 -9 -2 -9 -10 0 -9 2 -16 4 -16 2 0 12 -3 20 -6 11 -4 15 -2
11 8 -3 7 1 22 9 33 15 20 15 20 16 0 4 -136 6 -143 29 -162 23 -19 22 -51 -1
-37 -7 5 -9 1 -5 -9 3 -9 -4 -26 -19 -42 -26 -28 -27 -46 -3 -54 11 -3 12 -1
2 10 -8 10 -9 19 -1 29 8 12 9 12 4 -2 -3 -10 -2 -18 2 -18 8 0 82 49 82 54 0
2 -8 10 -17 17 -15 12 -16 12 -10 -3 8 -22 -11 -34 -26 -19 -9 9 -7 10 8 5 17
-7 18 -6 7 8 -11 14 -10 17 5 22 10 3 19 15 20 27 2 17 -1 18 -13 9 -14 -12
-20 -3 -15 24 1 5 -4 6 -12 3 -10 -4 -13 6 -13 41 1 26 5 53 10 60 4 7 5 16 2
19 -3 4 -6 0 -6 -8 -1 -10 -4 -9 -11 4 -14 24 4 46 39 45 41 -1 52 1 52 10 0
13 -81 8 -92 -6z"/>
<path d="M2987 1723 c-4 -3 -3 -11 3 -17 5 -7 5 -17 -2 -26 -8 -12 -9 -12 -4
3 6 20 -5 22 -22 5 -17 -17 -15 -24 8 -25 22 -2 32 10 36 44 2 22 -6 30 -19
16z"/>
<path d="M3044 1660 c1 -54 0 -55 -26 -54 -16 1 -28 -2 -28 -7 0 -5 -12 -15
-27 -22 -20 -11 -27 -23 -29 -51 -1 -20 2 -38 7 -41 4 -3 6 -12 3 -20 -3 -7 4
-18 15 -25 26 -13 29 4 4 19 -11 6 -13 11 -5 11 8 0 10 5 5 13 -4 6 -8 26 -8
42 -1 24 6 34 35 51 23 13 37 17 42 10 4 -6 15 -11 24 -11 10 0 19 -6 21 -12
3 -7 0 -13 -7 -13 -6 0 -8 5 -5 10 3 6 1 10 -4 10 -6 0 -11 -6 -11 -12 0 -7
-5 -5 -11 5 -5 9 -15 17 -20 17 -6 0 -3 -10 5 -22 23 -32 82 -33 103 -2 9 14
13 27 10 30 -3 3 -10 -4 -17 -15 -6 -12 -15 -21 -21 -21 -5 0 -1 10 11 22 11
12 20 27 20 32 -1 6 -9 1 -18 -10 -16 -19 -21 -20 -37 -8 -10 7 -22 11 -28 7
-6 -3 -7 -1 -3 5 4 6 14 8 23 5 10 -4 14 -2 10 4 -9 14 2 43 15 43 5 0 6 -4 3
-10 -12 -20 -14 -51 -3 -48 6 2 12 14 13 26 1 12 5 25 10 29 4 5 4 -3 0 -17
-7 -22 -6 -23 8 -12 9 8 13 20 10 28 -3 8 -1 14 4 14 5 0 9 9 9 19 0 13 -7 19
-18 18 -21 -1 -23 -8 -7 -24 8 -8 1 -10 -25 -8 -48 3 -54 11 -25 34 l24 19
-26 -1 c-26 -2 -27 -4 -25 -57z m26 -14 c0 -3 -4 -8 -10 -11 -5 -3 -10 -1 -10
4 0 6 5 11 10 11 6 0 10 -2 10 -4z"/>
<path d="M3077 1693 c-12 -12 -7 -19 14 -20 17 -2 18 1 9 13 -14 16 -14 16
-23 7z"/>
<path d="M2833 1678 c3 -10 2 -20 -3 -23 -5 -3 -7 -12 -4 -20 4 -8 10 -13 14
-10 10 6 6 53 -5 63 -5 4 -5 -1 -2 -10z"/>
<path d="M2790 1652 c0 -4 11 -24 25 -45 14 -20 22 -37 17 -37 -12 0 -12 -39
0 -46 15 -10 33 13 21 28 -5 7 -8 23 -7 35 1 14 -6 25 -17 28 -10 4 -18 9 -18
13 3 18 -2 32 -11 32 -5 0 -10 -3 -10 -8z"/>
<path d="M3141 1599 c9 -17 13 -19 20 -8 5 8 3 16 -4 21 -22 14 -28 8 -16 -13z"/>
<path d="M2885 1602 c-11 -11 -5 -24 8 -16 14 11 37 11 52 2 6 -4 17 -3 25 3
8 5 13 9 10 10 -19 4 -90 5 -95 1z"/>
<path d="M2903 1568 c1 -21 8 -23 25 -6 17 17 15 24 -7 24 -13 0 -19 -7 -18
-18z"/>
<path d="M2977 1556 c-8 -9 -13 -27 -10 -43 2 -15 5 -33 5 -40 2 -15 36 -12
42 3 3 7 -3 18 -11 26 -15 11 -16 11 -10 -5 4 -10 3 -16 -2 -13 -10 7 -9 61 2
73 5 4 5 -1 1 -12 -7 -18 -6 -18 9 -6 9 7 14 17 11 22 -8 13 -21 11 -37 -5z"/>
<path d="M3005 1530 c-9 -15 3 -29 25 -27 23 1 25 8 8 25 -15 15 -25 15 -33 2z"/>
<path d="M1510 1660 c0 -5 5 -10 10 -10 6 0 10 5 10 10 0 6 -4 10 -10 10 -5 0
-10 -4 -10 -10z"/>
</g>
</svg>
